<svg width="294" height="184" viewBox="0 0 294 184" fill="none" xmlns="http://www.w3.org/2000/svg">
<g clip-path="url(#clip0_1_894)">
<path d="M277.986 183.275C278.675 176.43 280.576 169.735 283.613 163.458C284.46 161.711 285.392 160.003 286.409 158.333C286.46 158.246 286.472 158.144 286.443 158.048C286.414 157.953 286.346 157.871 286.253 157.821C286.16 157.771 286.05 157.756 285.946 157.78C285.841 157.803 285.751 157.864 285.694 157.947C281.995 164.029 279.404 170.631 278.024 177.489C277.64 179.404 277.352 181.333 277.158 183.275C277.109 183.765 277.938 183.762 277.986 183.275Z" fill="#F2F2F2"/>
<path d="M288.414 159.56C291.311 159.56 293.659 157.391 293.659 154.716C293.659 152.041 291.311 149.873 288.414 149.873C285.518 149.873 283.17 152.041 283.17 154.716C283.17 157.391 285.518 159.56 288.414 159.56Z" fill="#F2F2F2"/>
<path d="M278.523 183.404C278.969 178.963 280.203 174.62 282.173 170.548C282.723 169.414 283.327 168.306 283.987 167.223C284.02 167.166 284.028 167.1 284.009 167.038C283.99 166.976 283.946 166.923 283.886 166.89C283.826 166.858 283.754 166.848 283.687 166.864C283.619 166.879 283.56 166.918 283.523 166.972C281.124 170.918 279.443 175.201 278.547 179.65C278.298 180.893 278.111 182.144 277.986 183.404C277.954 183.722 278.491 183.72 278.523 183.404H278.523Z" fill="#F2F2F2"/>
<path d="M285.288 168.019C287.167 168.019 288.691 166.612 288.691 164.876C288.691 163.141 287.167 161.734 285.288 161.734C283.409 161.734 281.886 163.141 281.886 164.876C281.886 166.612 283.409 168.019 285.288 168.019Z" fill="#F2F2F2"/>
<path d="M277.845 183.107C275.239 179.352 273.319 175.227 272.161 170.897C271.84 169.691 271.578 168.474 271.377 167.245C271.365 167.182 271.328 167.125 271.271 167.087C271.215 167.048 271.145 167.032 271.076 167.04C271.007 167.049 270.944 167.082 270.901 167.133C270.858 167.183 270.838 167.247 270.845 167.311C271.58 171.785 273.107 176.117 275.364 180.134C275.995 181.255 276.681 182.348 277.421 183.412C277.608 183.681 278.03 183.374 277.845 183.107Z" fill="#F2F2F2"/>
<path d="M270.84 167.798C272.719 167.798 274.243 166.391 274.243 164.656C274.243 162.92 272.719 161.513 270.84 161.513C268.961 161.513 267.438 162.92 267.438 164.656C267.438 166.391 268.961 167.798 270.84 167.798Z" fill="#F2F2F2"/>
<path d="M58.3467 183.275C57.6585 176.43 55.7576 169.735 52.7199 163.458C51.8733 161.712 50.9415 160.003 49.9244 158.333C49.8734 158.246 49.8611 158.144 49.8902 158.048C49.9192 157.953 49.9873 157.871 50.08 157.821C50.1728 157.771 50.283 157.756 50.3873 157.78C50.4917 157.803 50.5821 157.864 50.6395 157.947C54.3381 164.029 56.9292 170.631 58.3093 177.489C58.6932 179.404 58.9817 181.333 59.1748 183.275C59.2239 183.765 58.3955 183.762 58.3467 183.275Z" fill="#F2F2F2"/>
<path d="M47.9186 159.56C50.8151 159.56 53.1632 157.391 53.1632 154.716C53.1632 152.041 50.8151 149.873 47.9186 149.873C45.0221 149.873 42.6741 152.041 42.6741 154.716C42.6741 157.391 45.0221 159.56 47.9186 159.56Z" fill="#F2F2F2"/>
<path d="M57.8102 183.404C57.3638 178.963 56.1306 174.62 54.1599 170.548C53.6106 169.414 53.0061 168.306 52.3463 167.223C52.3131 167.166 52.3051 167.1 52.3239 167.038C52.3427 166.976 52.3869 166.923 52.4471 166.89C52.5073 166.858 52.5789 166.848 52.6466 166.864C52.7144 166.879 52.773 166.918 52.8102 166.972C55.2097 170.918 56.8906 175.201 57.7859 179.65C58.035 180.893 58.2222 182.144 58.3475 183.404C58.3793 183.722 57.8419 183.72 57.8103 183.404H57.8102Z" fill="#F2F2F2"/>
<path d="M51.0452 168.019C52.9243 168.019 54.4476 166.612 54.4476 164.876C54.4476 163.141 52.9243 161.734 51.0452 161.734C49.1661 161.734 47.6428 163.141 47.6428 164.876C47.6428 166.612 49.1661 168.019 51.0452 168.019Z" fill="#F2F2F2"/>
<path d="M58.4884 183.107C61.0939 179.352 63.014 175.227 64.1719 170.897C64.4935 169.691 64.7549 168.474 64.9561 167.245C64.9677 167.182 65.0056 167.125 65.0617 167.087C65.1179 167.048 65.1878 167.032 65.2569 167.04C65.326 167.049 65.3888 167.082 65.432 167.133C65.4753 167.183 65.4956 167.247 65.4886 167.311C64.7529 171.785 63.2261 176.117 60.969 180.134C60.3379 181.255 59.6523 182.348 58.912 183.412C58.7254 183.681 58.303 183.374 58.4884 183.107H58.4884Z" fill="#F2F2F2"/>
<path d="M65.4927 167.798C67.3718 167.798 68.8951 166.391 68.8951 164.656C68.8951 162.92 67.3718 161.513 65.4927 161.513C63.6136 161.513 62.0903 162.92 62.0903 164.656C62.0903 166.391 63.6136 167.798 65.4927 167.798Z" fill="#F2F2F2"/>
<path d="M258.274 119.955L258.356 176.904C258.356 177.962 257.903 178.976 257.094 179.724C256.286 180.473 255.189 180.895 254.045 180.898L228.43 180.933C235.641 168.475 239.724 148.866 239.7 133.752C239.693 127.787 239.037 121.838 237.741 115.995L253.95 115.973C255.095 115.972 256.193 116.391 257.004 117.138C257.814 117.884 258.271 118.897 258.274 119.955Z" fill="#F08E42"/>
<path d="M293.592 184H40.8332C40.7253 184 40.6219 183.96 40.5457 183.889C40.4695 183.819 40.4268 183.723 40.4268 183.624C40.4268 183.524 40.4695 183.428 40.5457 183.358C40.6219 183.287 40.7253 183.247 40.8332 183.247H293.592C293.7 183.247 293.804 183.287 293.881 183.357C293.957 183.428 294 183.524 294 183.624C294 183.723 293.957 183.819 293.881 183.89C293.804 183.96 293.7 184 293.592 184Z" fill="#3F3D56"/>
<path d="M220.739 112.171L175.09 112.006L179.529 98.3661C179.883 97.2946 180.6 96.3559 181.573 95.6874C182.547 95.0188 183.726 94.6556 184.939 94.6508H184.961L211.016 94.7452C212.233 94.7546 213.414 95.1244 214.387 95.8003C215.359 96.4763 216.07 97.4226 216.416 98.5L220.739 112.171Z" fill="#3F3D56"/>
<path d="M246.224 107.504C244.952 107.504 243.733 107.97 242.834 108.8C241.936 109.63 241.431 110.756 241.431 111.93H251.017C251.017 110.756 250.512 109.63 249.613 108.8C248.714 107.97 247.495 107.504 246.224 107.504Z" fill="#F08E42"/>
<path d="M260.945 183.704H134.958C133.415 183.703 131.936 183.136 130.844 182.128C129.753 181.121 129.14 179.754 129.138 178.329V116.989C129.14 115.564 129.753 114.198 130.844 113.19C131.936 112.182 133.415 111.615 134.958 111.614H260.945C262.488 111.615 263.967 112.182 265.058 113.19C266.149 114.198 266.763 115.564 266.765 116.989V178.329C266.763 179.754 266.149 181.121 265.058 182.128C263.967 183.136 262.488 183.703 260.945 183.704ZM134.958 112.246C133.596 112.248 132.291 112.748 131.328 113.637C130.366 114.526 129.824 115.732 129.823 116.989V178.329C129.824 179.587 130.366 180.792 131.328 181.681C132.291 182.571 133.596 183.071 134.958 183.072H260.945C262.306 183.071 263.612 182.571 264.574 181.681C265.537 180.792 266.079 179.587 266.08 178.329V116.989C266.079 115.732 265.537 114.526 264.574 113.637C263.612 112.748 262.306 112.248 260.945 112.246H134.958Z" fill="#3F3D56"/>
<path d="M203.429 107.029H192.474C191.702 107.029 190.962 106.746 190.416 106.242C189.87 105.738 189.564 105.054 189.564 104.342C189.564 103.629 189.87 102.945 190.416 102.441C190.962 101.937 191.702 101.654 192.474 101.654H203.429C204.201 101.654 204.941 101.937 205.487 102.441C206.033 102.945 206.339 103.629 206.339 104.342C206.339 105.054 206.033 105.738 205.487 106.242C204.941 106.746 204.201 107.029 203.429 107.029Z" fill="white"/>
<path d="M197.951 171.689C192.805 171.689 187.775 170.28 183.496 167.64C179.217 164.999 175.882 161.246 173.913 156.855C171.944 152.464 171.428 147.633 172.432 142.971C173.436 138.31 175.914 134.028 179.553 130.667C183.192 127.307 187.828 125.018 192.875 124.091C197.923 123.164 203.154 123.639 207.908 125.458C212.663 127.277 216.726 130.357 219.585 134.309C222.444 138.261 223.97 142.907 223.97 147.659C223.963 154.03 221.219 160.138 216.341 164.643C211.463 169.148 204.85 171.682 197.951 171.689ZM197.951 124.261C192.941 124.261 188.043 125.634 183.876 128.205C179.71 130.776 176.463 134.43 174.546 138.705C172.628 142.981 172.126 147.685 173.104 152.224C174.081 156.763 176.494 160.932 180.037 164.204C183.58 167.476 188.095 169.705 193.009 170.607C197.923 171.51 203.017 171.047 207.646 169.276C212.276 167.505 216.232 164.506 219.016 160.658C221.8 156.811 223.286 152.287 223.286 147.659C223.278 141.456 220.607 135.509 215.857 131.122C211.108 126.736 204.668 124.268 197.951 124.261Z" fill="#3F3D56"/>
<path d="M197.952 163.469C194.566 163.469 191.256 162.541 188.441 160.804C185.626 159.067 183.432 156.598 182.137 153.709C180.841 150.82 180.502 147.642 181.163 144.575C181.823 141.508 183.453 138.691 185.847 136.48C188.241 134.269 191.292 132.764 194.612 132.154C197.933 131.544 201.374 131.857 204.502 133.053C207.63 134.25 210.304 136.276 212.184 138.876C214.065 141.476 215.069 144.532 215.069 147.659C215.064 151.851 213.259 155.869 210.05 158.833C206.841 161.797 202.49 163.464 197.952 163.469ZM197.952 132.482C194.701 132.482 191.524 133.372 188.822 135.04C186.119 136.708 184.013 139.078 182.769 141.851C181.526 144.624 181.2 147.676 181.834 150.62C182.468 153.564 184.033 156.268 186.332 158.391C188.63 160.513 191.558 161.959 194.746 162.545C197.933 163.13 201.237 162.83 204.24 161.681C207.243 160.532 209.809 158.587 211.615 156.091C213.421 153.595 214.385 150.661 214.385 147.659C214.38 143.635 212.647 139.778 209.566 136.932C206.485 134.087 202.308 132.487 197.952 132.482Z" fill="#3F3D56"/>
<path d="M197.951 159.674C205.136 159.674 210.961 154.295 210.961 147.659C210.961 141.024 205.136 135.644 197.951 135.644C190.766 135.644 184.942 141.024 184.942 147.659C184.942 154.295 190.766 159.674 197.951 159.674Z" fill="#CCCCCC"/>
<path d="M190.077 147.659C190.078 145.755 190.822 143.914 192.175 142.476C193.527 141.039 195.396 140.1 197.438 139.833C196.224 139.674 194.988 139.757 193.812 140.077C192.636 140.398 191.549 140.947 190.623 141.689C189.697 142.431 188.955 143.348 188.446 144.378C187.937 145.408 187.674 146.527 187.674 147.659C187.674 148.791 187.937 149.91 188.446 150.94C188.955 151.97 189.697 152.887 190.623 153.629C191.549 154.371 192.636 154.921 193.812 155.241C194.988 155.561 196.224 155.645 197.438 155.485C195.396 155.219 193.527 154.28 192.175 152.842C190.822 151.404 190.078 149.564 190.077 147.659Z" fill="white"/>
<path d="M254.783 112.246H237.665V111.93C237.665 109.834 238.567 107.823 240.172 106.341C241.777 104.858 243.954 104.026 246.224 104.026C248.494 104.026 250.671 104.858 252.276 106.341C253.881 107.823 254.783 109.834 254.783 111.93V112.246ZM238.357 111.614H254.09C254.002 109.742 253.135 107.973 251.669 106.677C250.203 105.381 248.253 104.658 246.224 104.658C244.195 104.658 242.244 105.381 240.778 106.677C239.313 107.973 238.445 109.742 238.357 111.614Z" fill="#3F3D56"/>
<path d="M137.697 121.1C137.02 121.1 136.358 120.914 135.795 120.567C135.232 120.219 134.793 119.725 134.534 119.148C134.275 118.57 134.207 117.934 134.339 117.321C134.471 116.708 134.797 116.144 135.276 115.702C135.755 115.26 136.365 114.959 137.029 114.837C137.693 114.715 138.382 114.777 139.007 115.017C139.633 115.256 140.167 115.661 140.544 116.181C140.92 116.701 141.121 117.312 141.121 117.938C141.12 118.776 140.759 119.58 140.117 120.172C139.475 120.765 138.605 121.099 137.697 121.1ZM137.697 115.408C137.155 115.408 136.626 115.557 136.175 115.835C135.725 116.112 135.374 116.508 135.167 116.97C134.959 117.432 134.905 117.941 135.011 118.431C135.116 118.922 135.377 119.373 135.76 119.726C136.143 120.08 136.631 120.321 137.163 120.419C137.694 120.516 138.245 120.466 138.745 120.275C139.246 120.083 139.673 119.759 139.974 119.343C140.275 118.927 140.436 118.438 140.436 117.938C140.435 117.267 140.146 116.624 139.633 116.15C139.119 115.676 138.423 115.409 137.697 115.408Z" fill="#3F3D56"/>
<path d="M137.697 119.519C138.642 119.519 139.409 118.811 139.409 117.938C139.409 117.065 138.642 116.357 137.697 116.357C136.751 116.357 135.985 117.065 135.985 117.938C135.985 118.811 136.751 119.519 137.697 119.519Z" fill="#F08E42"/>
<path d="M146.598 119.519C147.544 119.519 148.31 118.811 148.31 117.938C148.31 117.065 147.544 116.357 146.598 116.357C145.653 116.357 144.886 117.065 144.886 117.938C144.886 118.811 145.653 119.519 146.598 119.519Z" fill="#CCCCCC"/>
<path d="M155.499 119.519C156.445 119.519 157.211 118.811 157.211 117.938C157.211 117.065 156.445 116.357 155.499 116.357C154.554 116.357 153.788 117.065 153.788 117.938C153.788 118.811 154.554 119.519 155.499 119.519Z" fill="#CCCCCC"/>
<path d="M146.598 121.1C145.921 121.1 145.259 120.914 144.696 120.567C144.133 120.219 143.694 119.725 143.435 119.148C143.176 118.57 143.108 117.934 143.24 117.321C143.372 116.708 143.698 116.144 144.177 115.702C144.656 115.26 145.266 114.959 145.93 114.837C146.594 114.715 147.283 114.777 147.908 115.017C148.534 115.256 149.069 115.661 149.445 116.181C149.821 116.701 150.022 117.312 150.022 117.938C150.021 118.776 149.66 119.58 149.018 120.172C148.376 120.765 147.506 121.099 146.598 121.1ZM146.598 115.408C146.056 115.408 145.527 115.557 145.076 115.835C144.626 116.112 144.275 116.508 144.068 116.97C143.86 117.432 143.806 117.941 143.912 118.431C144.018 118.922 144.278 119.373 144.661 119.726C145.044 120.08 145.533 120.321 146.064 120.419C146.595 120.516 147.146 120.466 147.646 120.275C148.147 120.083 148.574 119.759 148.875 119.343C149.176 118.927 149.337 118.438 149.337 117.938C149.336 117.267 149.047 116.624 148.534 116.15C148.02 115.676 147.324 115.409 146.598 115.408Z" fill="#3F3D56"/>
<path d="M155.499 121.1C154.822 121.1 154.16 120.914 153.597 120.567C153.034 120.219 152.596 119.725 152.337 119.148C152.077 118.57 152.01 117.934 152.142 117.321C152.274 116.708 152.6 116.144 153.079 115.702C153.557 115.26 154.167 114.959 154.832 114.837C155.496 114.715 156.184 114.777 156.81 115.017C157.435 115.256 157.97 115.661 158.346 116.181C158.722 116.701 158.923 117.312 158.923 117.938C158.922 118.776 158.561 119.58 157.919 120.172C157.277 120.765 156.407 121.099 155.499 121.1ZM155.499 115.408C154.958 115.408 154.428 115.557 153.978 115.835C153.527 116.112 153.176 116.508 152.969 116.97C152.762 117.432 152.708 117.941 152.813 118.431C152.919 118.922 153.18 119.373 153.563 119.726C153.946 120.08 154.434 120.321 154.965 120.419C155.496 120.516 156.047 120.466 156.548 120.275C157.048 120.083 157.476 119.759 157.777 119.343C158.078 118.927 158.238 118.438 158.238 117.938C158.238 117.267 157.949 116.624 157.435 116.15C156.922 115.676 156.226 115.409 155.499 115.408Z" fill="#3F3D56"/>
<path d="M173.987 139.082H129.48V139.715H173.987V139.082Z" fill="#3F3D56"/>
<path d="M172.881 151.809H129.48V152.442H172.881V151.809Z" fill="#3F3D56"/>
<path d="M266.423 139.082H221.917V139.715H266.423V139.082Z" fill="#3F3D56"/>
<path d="M266.344 151.809H222.943V152.442H266.344V151.809Z" fill="#3F3D56"/>
<path d="M93.4035 76.6678C90.6271 75.4899 88.8021 72.1221 88.9061 68.8007C89.01 65.4793 90.9025 62.373 93.5127 60.7891C94.7852 60.0361 96.2404 59.5868 97.7474 59.4816C99.2544 59.3764 100.766 59.6187 102.147 60.1865C104.948 61.2878 108.709 61.5878 110.393 64.3251C111.687 66.4286 111.221 71.1214 110.305 73.4605C109.513 75.4822 107.577 76.6213 105.689 77.2587C103.599 77.958 101.371 78.2345 99.1552 78.0697C96.9397 77.9048 94.7883 77.3025 92.8466 76.3033" fill="#2F2E41"/>
<path d="M76.4757 179.818L72.4841 178.618L75.5931 163.829L81.484 165.599L76.4757 179.818Z" fill="#FFB8B8"/>
<path d="M70.0045 176.709L77.702 179.021L76.1253 183.497L63.5812 179.728C63.7883 179.141 64.1187 178.596 64.5535 178.126C64.9884 177.656 65.5192 177.27 66.1157 176.99C66.7121 176.709 67.3626 176.54 68.0298 176.492C68.6971 176.444 69.3681 176.517 70.0045 176.709Z" fill="#2F2E41"/>
<path d="M112.207 179.898L108.01 179.898L106.013 164.946L112.208 164.946L112.207 179.898Z" fill="#FFB8B8"/>
<path d="M105.012 178.79H113.106V183.497H99.915C99.915 182.879 100.047 182.267 100.303 181.696C100.559 181.125 100.935 180.606 101.408 180.169C101.881 179.732 102.443 179.385 103.061 179.148C103.68 178.912 104.342 178.79 105.012 178.79Z" fill="#2F2E41"/>
<path d="M111.996 173.782C111.971 173.782 111.945 173.782 111.92 173.781L107.269 173.576C106.877 173.558 106.508 173.403 106.235 173.143C105.963 172.883 105.808 172.536 105.802 172.174L105.171 129.682C105.17 129.576 105.13 129.474 105.059 129.392C104.988 129.31 104.889 129.252 104.778 129.227C104.667 129.203 104.55 129.213 104.446 129.256C104.342 129.3 104.257 129.374 104.204 129.467L79.5683 172.608C79.4155 172.878 79.1722 173.095 78.8748 173.228C78.5773 173.36 78.2416 173.4 77.9175 173.342L73.2885 172.527C73.0705 172.489 72.864 172.408 72.6832 172.289C72.5024 172.17 72.3516 172.017 72.241 171.839C72.1304 171.661 72.0627 171.463 72.0425 171.259C72.0223 171.055 72.0501 170.85 72.124 170.656L90.0737 123.686L91.4549 109.792C91.4857 109.468 91.6365 109.163 91.882 108.93C92.1275 108.697 92.4526 108.549 92.8024 108.511C98.0326 107.918 105.341 103.96 108.24 102.286C108.418 102.182 108.617 102.114 108.825 102.085C109.033 102.056 109.246 102.067 109.449 102.118C109.654 102.169 109.846 102.258 110.013 102.38C110.179 102.502 110.317 102.655 110.418 102.828C117.402 114.815 120.073 128.544 118.045 142.028L113.52 172.552C113.471 172.893 113.289 173.206 113.009 173.433C112.729 173.659 112.368 173.783 111.996 173.782Z" fill="#2F2E41"/>
<path d="M99.4762 79.9314C104.12 79.9314 107.885 76.4545 107.885 72.1655C107.885 67.8766 104.12 64.3997 99.4762 64.3997C94.8323 64.3997 91.0676 67.8766 91.0676 72.1655C91.0676 76.4545 94.8323 79.9314 99.4762 79.9314Z" fill="#FFB8B8"/>
<path d="M91.098 113.128L88.5661 96.4191C87.9497 93.8802 88.45 91.2192 89.9571 89.0208C91.4641 86.8224 93.8545 85.2666 96.603 84.6952C99.3515 84.1238 102.233 84.5837 104.615 85.9736C106.996 87.3636 108.683 89.57 109.304 92.1079C110.025 95.1966 111.49 98.9566 110.955 103.01C107.205 112.622 100.398 115.585 91.098 113.128Z" fill="#B3B3B3"/>
<path d="M102.224 87.2006H96.0621C95.6536 87.2001 95.262 87.0501 94.9732 86.7833C94.6844 86.5166 94.5219 86.155 94.5215 85.7777V83.8806C94.5219 83.5034 94.6844 83.1417 94.9732 82.875C95.262 82.6082 95.6536 82.4582 96.0621 82.4578H102.224C102.633 82.4582 103.025 82.6082 103.313 82.875C103.602 83.1417 103.765 83.5034 103.765 83.8806V85.7777C103.765 86.155 103.602 86.5166 103.313 86.7833C103.025 87.0501 102.633 87.2001 102.224 87.2006Z" fill="#B3B3B3"/>
<path d="M133.455 118.782C133.622 118.31 133.676 117.81 133.611 117.317C133.546 116.824 133.365 116.35 133.081 115.929C132.796 115.507 132.415 115.149 131.965 114.878C131.514 114.607 131.004 114.431 130.472 114.362L111.29 88.9995L105.602 94.1928L126.246 117.49C126.179 118.324 126.446 119.152 126.996 119.816C127.546 120.48 128.341 120.935 129.229 121.094C130.118 121.253 131.039 121.106 131.818 120.679C132.597 120.253 133.179 119.578 133.455 118.782V118.782Z" fill="#FFB8B8"/>
<path d="M117.29 96.7584L110.363 101.029C110.166 101.151 109.943 101.232 109.709 101.266C109.475 101.301 109.236 101.289 109.007 101.23C108.779 101.172 108.567 101.069 108.386 100.928C108.204 100.787 108.058 100.611 107.957 100.413L104.408 93.4801C103.742 92.5452 103.503 91.4044 103.746 90.3075C103.988 89.2106 104.691 88.2472 105.701 87.6283C106.711 87.0095 107.946 86.7858 109.134 87.0061C110.323 87.2265 111.368 87.8729 112.041 88.8039L117.597 94.4697C117.756 94.6319 117.876 94.8239 117.947 95.0326C118.019 95.2413 118.04 95.4618 118.011 95.679C117.982 95.8962 117.903 96.105 117.778 96.2913C117.654 96.4776 117.487 96.6369 117.29 96.7584Z" fill="#B3B3B3"/>
<path d="M65.6912 84.7035C65.7332 84.8741 65.7606 85.0475 65.7731 85.2221L80.4798 93.0578L84.0545 91.1572L87.8653 95.7648L81.8911 99.6974C81.4085 100.015 80.8273 100.18 80.2348 100.166C79.6423 100.153 79.0704 99.9625 78.6051 99.6234L63.4399 88.574C62.7555 88.808 62.0102 88.844 61.3031 88.6772C60.596 88.5104 59.9607 88.1488 59.4816 87.6404C59.0025 87.132 58.7023 86.5009 58.621 85.8311C58.5397 85.1613 58.6811 84.4845 59.0265 83.8907C59.3718 83.297 59.9047 82.8144 60.5543 82.5072C61.2039 82.2 61.9393 82.0827 62.6628 82.1709C63.3863 82.2591 64.0636 82.5487 64.6045 83.0011C65.1455 83.4535 65.5245 84.0473 65.6912 84.7035V84.7035Z" fill="#FFB8B8"/>
<path d="M84.7545 98.7516L81.0591 91.858C80.954 91.6619 80.8959 91.4471 80.8887 91.2283C80.8815 91.0096 80.9255 90.792 81.0176 90.5903C81.1097 90.3887 81.2478 90.2077 81.4225 90.0598C81.5971 89.9119 81.8042 89.8004 82.0297 89.7331L89.9308 87.3745C91.0204 86.8833 92.2764 86.8113 93.4235 87.1741C94.5705 87.537 95.515 88.3051 96.0497 89.3101C96.5845 90.3151 96.666 91.4749 96.2762 92.5353C95.8865 93.5957 95.0574 94.47 93.9707 94.9667L87.1726 99.327C86.9779 99.4518 86.7564 99.5364 86.5232 99.575C86.2899 99.6136 86.0504 99.6053 85.8209 99.5507C85.5914 99.4961 85.3774 99.3964 85.1933 99.2585C85.0093 99.1206 84.8596 98.9477 84.7545 98.7516H84.7545Z" fill="#B3B3B3"/>
<path d="M105.119 62.3849C105.422 62.4257 105.731 62.3731 105.998 62.2354C106.265 62.0977 106.476 61.8825 106.597 61.623C106.709 61.3602 106.755 61.0771 106.73 60.7956C106.705 60.514 106.611 60.2413 106.455 59.9986C106.136 59.5148 105.692 59.1123 105.162 58.8276C104.552 58.4509 103.846 58.2268 103.114 58.1769C102.749 58.1548 102.383 58.2055 102.04 58.3254C101.698 58.4454 101.388 58.6319 101.131 58.8723C100.879 59.1187 100.714 59.4286 100.654 59.7625C100.595 60.0964 100.645 60.439 100.798 60.7465C101.105 61.2941 101.75 61.6012 102.379 61.8097C103.626 62.2223 104.954 62.3834 106.274 62.2822" fill="#2F2E41"/>
<path d="M107.808 75.7012C106.338 75.765 106.591 72.8849 106.131 71.5941C105.671 70.3034 105.037 68.7638 103.591 68.5164C102.405 68.3136 101.334 69.1142 100.301 69.689C98.4602 70.7134 96.0776 71.0913 94.1449 70.2235C92.2121 69.3557 91.0368 67.037 91.9768 65.2522C92.263 64.7615 92.6553 64.3304 93.1293 63.9855C93.6033 63.6406 94.1489 63.3893 94.7324 63.2471C95.9021 62.9694 97.121 62.9153 98.3142 63.0882C100.976 63.3896 103.534 64.2269 105.807 65.541C107.375 66.4495 108.868 67.6867 109.335 69.3415C109.802 70.9963 109.992 75.4962 108.167 75.781L107.808 75.7012Z" fill="#2F2E41"/>
<path d="M103.963 58.3791C102.853 57.0793 103.271 55.0314 104.565 53.8857C105.859 52.74 107.783 52.3829 109.568 52.5287C111.337 52.6932 113.028 53.2845 114.472 54.2432C115.916 55.2019 117.061 56.4943 117.793 57.9907C118.922 60.3746 118.912 63.1012 119.933 65.5262C120.477 66.8189 121.301 67.995 122.356 68.9822C123.411 69.9694 124.673 70.7467 126.065 71.2664C127.458 71.786 128.95 72.0369 130.451 72.0036C131.953 71.9704 133.431 71.6536 134.794 71.0729C136.57 70.3166 138.262 68.8355 138.16 67.0315C139.283 71.0301 137.261 75.6041 133.428 77.7336C131.183 78.9809 128.524 79.4043 125.924 79.6957C124.229 79.8856 122.487 80.0269 120.833 79.6356C118.519 79.0883 116.581 77.5109 115.408 75.5892C114.235 73.6675 113.774 71.428 113.756 69.2219C113.742 67.5034 113.985 65.7839 113.857 64.0694C113.728 62.3549 113.17 60.5815 111.824 59.3944C110.479 58.2074 108.208 57.8167 106.731 58.8623C106.137 59.2825 105.702 59.8961 105.034 60.2061C104.366 60.5161 103.31 60.275 103.265 59.5856L103.963 58.3791Z" fill="#2F2E41"/>
<path d="M71.7449 84.7589H2.3915C1.75746 84.7582 1.1496 84.5253 0.701266 84.1112C0.252932 83.6972 0.000735738 83.1358 0 82.5502V46.4748C0.000736642 45.8892 0.252933 45.3278 0.701266 44.9138C1.1496 44.4997 1.75746 44.2668 2.3915 44.2661H71.7449C72.379 44.2668 72.9868 44.4997 73.4352 44.9138C73.8835 45.3278 74.1357 45.8892 74.1364 46.4748V82.5502C74.1357 83.1358 73.8835 83.6972 73.4352 84.1113C72.9869 84.5253 72.379 84.7582 71.7449 84.7589ZM2.3915 44.7569C1.89835 44.7575 1.42556 44.9386 1.07685 45.2607C0.728143 45.5827 0.531995 46.0194 0.531441 46.4748V82.5502C0.531995 83.0057 0.728143 83.4423 1.07685 83.7644C1.42556 84.0864 1.89835 84.2676 2.3915 84.2681H71.7449C72.2381 84.2676 72.7109 84.0864 73.0596 83.7643C73.4083 83.4423 73.6044 83.0057 73.605 82.5502V46.4748C73.6044 46.0194 73.4083 45.5827 73.0596 45.2607C72.7109 44.9386 72.2381 44.7575 71.7449 44.7569H2.3915Z" fill="#3F3D56"/>
<path d="M25.2547 69.5902C30.7318 69.5902 35.1718 65.4895 35.1718 60.4311C35.1718 55.3727 30.7318 51.2721 25.2547 51.2721C19.7777 51.2721 15.3376 55.3727 15.3376 60.4311C15.3376 65.4895 19.7777 69.5902 25.2547 69.5902Z" fill="#E6E6E6"/>
<path d="M63.4693 76.6045L51.8282 57.9826C51.7554 57.8662 51.6508 57.7696 51.5247 57.7024C51.3987 57.6352 51.2558 57.5998 51.1103 57.5998C50.9647 57.5998 50.8218 57.6352 50.6957 57.7024C50.5697 57.7696 50.4651 57.8662 50.3923 57.9826L43.2881 69.347L32.6971 52.405C32.6038 52.2558 32.4696 52.1318 32.3081 52.0457C32.1465 51.9595 31.9632 51.9142 31.7766 51.9142C31.59 51.9142 31.4068 51.9595 31.2452 52.0457C31.0836 52.1318 30.9494 52.2558 30.8561 52.405L15.9307 76.2805C15.8374 76.4297 15.7883 76.599 15.7883 76.7713C15.7883 76.9436 15.8374 77.1129 15.9307 77.2621C16.024 77.4114 16.1582 77.5353 16.3198 77.6214C16.4814 77.7076 16.6646 77.7529 16.8512 77.7529H62.7514C62.8969 77.7529 63.0399 77.7176 63.1659 77.6504C63.2919 77.5832 63.3966 77.4865 63.4693 77.3701C63.5421 77.2537 63.5804 77.1217 63.5804 76.9873C63.5804 76.8529 63.5421 76.7209 63.4693 76.6045Z" fill="#F08E42"/>
<path d="M9.30038 48.6836H5.04883V52.6102H9.30038V48.6836Z" fill="#3F3D56"/>
<path d="M98.7412 31.6396H44.551C44.0556 31.639 43.5806 31.457 43.2303 31.1335C42.88 30.81 42.6829 30.3713 42.6824 29.9138V1.7258C42.6829 1.26825 42.88 0.829599 43.2303 0.506065C43.5806 0.182531 44.0556 0.000532218 44.551 0H98.7412C99.2366 0.000515514 99.7116 0.182508 100.062 0.506046C100.412 0.829583 100.609 1.26825 100.61 1.7258V29.9138C100.609 30.3713 100.412 30.81 100.062 31.1335C99.7116 31.4571 99.2366 31.639 98.7412 31.6396ZM44.551 0.38351C44.1657 0.38391 43.7963 0.525457 43.5238 0.777098C43.2513 1.02874 43.0981 1.36993 43.0976 1.7258V29.9138C43.0981 30.2696 43.2513 30.6108 43.5238 30.8625C43.7963 31.1141 44.1657 31.2556 44.551 31.2561H98.7412C99.1265 31.2556 99.4959 31.1141 99.7684 30.8624C100.041 30.6108 100.194 30.2696 100.195 29.9138V1.7258C100.194 1.36993 100.041 1.02875 99.7684 0.777117C99.4959 0.52548 99.1265 0.383925 98.7412 0.38351H44.551Z" fill="#CCCCCC"/>
<path d="M62.4156 19.7873C66.6951 19.7873 70.1644 16.5832 70.1644 12.6308C70.1644 8.67833 66.6951 5.47424 62.4156 5.47424C58.136 5.47424 54.6667 8.67833 54.6667 12.6308C54.6667 16.5832 58.136 19.7873 62.4156 19.7873Z" fill="#F2F2F2"/>
<path d="M92.275 25.268L83.179 10.7176C83.1222 10.6266 83.0404 10.5511 82.9419 10.4986C82.8434 10.4461 82.7317 10.4185 82.618 10.4185C82.5043 10.4185 82.3926 10.4461 82.2942 10.4986C82.1957 10.5511 82.1139 10.6266 82.0571 10.7176L76.5061 19.5973L68.2307 6.35945C68.1578 6.24285 68.053 6.14603 67.9267 6.07871C67.8004 6.01139 67.6572 5.97595 67.5115 5.97595C67.3657 5.97595 67.2225 6.01139 67.0962 6.07871C66.9699 6.14603 66.8651 6.24285 66.7922 6.35945L55.1301 25.0149C55.0572 25.1315 55.0188 25.2637 55.0188 25.3984C55.0188 25.533 55.0572 25.6653 55.1301 25.7819C55.203 25.8985 55.3078 25.9953 55.4341 26.0626C55.5603 26.13 55.7035 26.1654 55.8493 26.1654H91.714C91.8277 26.1654 91.9394 26.1377 92.0379 26.0852C92.1363 26.0327 92.2181 25.9572 92.275 25.8663C92.3318 25.7753 92.3618 25.6722 92.3618 25.5671C92.3618 25.4621 92.3318 25.359 92.275 25.268Z" fill="#F08E42"/>
<path d="M49.9492 3.45154H46.6272V6.51962H49.9492V3.45154Z" fill="#CCCCCC"/>
</g>
<defs>
<clipPath id="clip0_1_894">
<rect width="294" height="184" fill="white"/>
</clipPath>
</defs>
</svg>
