<svg width="40" height="30" viewBox="0 0 40 30" fill="none" xmlns="http://www.w3.org/2000/svg">
<rect x="0.25" y="0.25" width="39.5" height="29.5" rx="1.75" fill="white" stroke="#F5F5F5" stroke-width="0.5"/>
<mask id="mask0_373_2160" style="mask-type:luminance" maskUnits="userSpaceOnUse" x="0" y="0" width="40" height="30">
<rect x="0.25" y="0.25" width="39.5" height="29.5" rx="1.75" fill="white" stroke="white" stroke-width="0.5"/>
</mask>
<g mask="url(#mask0_373_2160)">
<path fill-rule="evenodd" clip-rule="evenodd" d="M20.0002 22C23.6821 22 26.6668 18.866 26.6668 15C26.6668 11.134 23.6821 8 20.0002 8C16.3183 8 13.3335 11.134 13.3335 15C13.3335 18.866 16.3183 22 20.0002 22Z" fill="#E01B41"/>
<mask id="mask1_373_2160" style="mask-type:luminance" maskUnits="userSpaceOnUse" x="13" y="8" width="14" height="14">
<path fill-rule="evenodd" clip-rule="evenodd" d="M20.0002 22C23.6821 22 26.6668 18.866 26.6668 15C26.6668 11.134 23.6821 8 20.0002 8C16.3183 8 13.3335 11.134 13.3335 15C13.3335 18.866 16.3183 22 20.0002 22Z" fill="white"/>
</mask>
<g mask="url(#mask1_373_2160)">
<path fill-rule="evenodd" clip-rule="evenodd" d="M13.3334 15.9999C15.2381 17.8749 18.0953 18.9999 20 15.9999C21.9048 12.9999 25.7143 12.9999 26.6667 15.9999C27.6191 18.9999 26.6667 21.9999 26.6667 21.9999H13.3334C13.3334 21.9999 11.4286 14.1249 13.3334 15.9999Z" fill="#0E4B9C"/>
</g>
<path opacity="0.75" fill-rule="evenodd" clip-rule="evenodd" d="M8.89599 5.19403C8.98469 5.03272 9.18422 4.97931 9.34165 5.07474L10.4211 5.72914C10.5786 5.82458 10.6343 6.03272 10.5456 6.19403L8.00964 10.806C7.92094 10.9673 7.72141 11.0207 7.56398 10.9253L6.4845 10.2709C6.32708 10.1755 6.27136 9.96732 6.36007 9.80601L8.89599 5.19403ZM29.5785 5.72916C29.4211 5.82459 29.3654 6.03273 29.4541 6.19405L31.99 10.806C32.0787 10.9673 32.2782 11.0207 32.4357 10.9253L33.5151 10.2709C33.6726 10.1755 33.7283 9.96734 33.6396 9.80602L31.1037 5.19405C31.0149 5.03273 30.8154 4.97932 30.658 5.07476L29.5785 5.72916ZM27.1042 7.22917C26.9467 7.32461 26.891 7.53275 26.9797 7.69406L29.5156 12.306C29.6043 12.4674 29.8039 12.5208 29.9613 12.4253L31.0408 11.7709C31.1982 11.6755 31.2539 11.4674 31.1652 11.306L28.6293 6.69406C28.5406 6.53275 28.3411 6.47934 28.1836 6.57477L27.1042 7.22917ZM6.36006 20.194C6.27136 20.0327 6.32707 19.8246 6.4845 19.7291L7.56398 19.0747C7.72141 18.9793 7.92093 19.0327 8.00963 19.194L10.5456 23.806C10.6343 23.9673 10.5785 24.1755 10.4211 24.2709L9.34164 24.9253C9.18422 25.0207 8.98469 24.9673 8.89599 24.806L6.36006 20.194ZM8.95887 18.2291C8.80144 18.3246 8.74573 18.5327 8.83443 18.694L11.3704 23.306C11.4591 23.4673 11.6586 23.5207 11.816 23.4253L12.8955 22.7709C13.0529 22.6754 13.1086 22.4673 13.0199 22.306L10.484 17.694C10.3953 17.5327 10.1958 17.4793 10.0383 17.5747L8.95887 18.2291ZM29.5157 17.694C29.6044 17.5327 29.8039 17.4793 29.9613 17.5747L31.0408 18.2291C31.1982 18.3245 31.2539 18.5327 31.1652 18.694L28.6293 23.306C28.5406 23.4673 28.3411 23.5207 28.1836 23.4253L27.1042 22.7709C26.9467 22.6754 26.891 22.4673 26.9797 22.306L29.5157 17.694ZM32.4357 19.0747C32.2782 18.9793 32.0787 19.0327 31.99 19.194L29.4541 23.806C29.3654 23.9673 29.4211 24.1754 29.5785 24.2709L30.658 24.9253C30.8154 25.0207 31.0149 24.9673 31.1036 24.806L33.6396 20.194C33.7283 20.0327 33.6726 19.8246 33.5151 19.7291L32.4357 19.0747ZM11.816 6.57476C11.6586 6.47933 11.4591 6.53274 11.3704 6.69405L8.83443 11.306C8.74573 11.4673 8.80144 11.6755 8.95887 11.7709L10.0383 12.4253C10.1958 12.5208 10.3953 12.4673 10.484 12.306L13.0199 7.69405C13.1086 7.53274 13.0529 7.3246 12.8955 7.22916L11.816 6.57476Z" fill="#262626"/>
</g>
</svg>
