<svg width="255" height="197" viewBox="0 0 255 197" fill="none" xmlns="http://www.w3.org/2000/svg">
<g clip-path="url(#clip0_1_817)">
<path d="M194.854 179.323C202.339 179.323 208.407 166.942 208.407 151.669C208.407 136.396 202.339 124.014 194.854 124.014C187.369 124.014 181.301 136.396 181.301 151.669C181.301 166.942 187.369 179.323 194.854 179.323Z" fill="#3F3D56"/>
<path d="M193.603 196.934C199.031 164.366 193.657 131.915 193.603 131.591L192.547 131.77C192.601 132.092 197.944 164.372 192.546 196.758L193.603 196.934Z" fill="#CACACA"/>
<path d="M182.922 145.722L182.417 146.667L194.672 153.222L195.178 152.278L182.922 145.722Z" fill="#CACACA"/>
<path d="M207.607 149.006L195.353 155.565L195.858 156.51L208.113 149.95L207.607 149.006Z" fill="#CACACA"/>
<path d="M227.419 161.99C242.059 161.99 253.928 137.774 253.928 107.902C253.928 78.0295 242.059 53.8132 227.419 53.8132C212.779 53.8132 200.91 78.0295 200.91 107.902C200.91 137.774 212.779 161.99 227.419 161.99Z" fill="#E6E6E6"/>
<path d="M224.466 196.352C235.069 132.736 224.573 69.3514 224.466 68.7186L223.41 68.8975C223.517 69.5287 233.982 132.743 223.41 196.176L224.466 196.352Z" fill="#CACACA"/>
<path d="M203.839 96.7222L203.333 97.6667L227.305 110.489L227.81 109.544L203.839 96.7222Z" fill="#CACACA"/>
<path d="M252.604 103.145L228.636 115.974L229.141 116.918L253.109 104.09L252.604 103.145Z" fill="#CACACA"/>
<path d="M165.853 196.522H24.8511C24.3325 196.521 23.8353 196.315 23.4686 195.948C23.1019 195.582 22.8956 195.084 22.895 194.566V105.469C22.8956 104.951 23.1019 104.454 23.4686 104.087C23.8353 103.72 24.3325 103.514 24.8511 103.513H165.853C166.371 103.514 166.868 103.72 167.235 104.087C167.602 104.454 167.808 104.951 167.809 105.469V194.566C167.808 195.084 167.602 195.582 167.235 195.948C166.868 196.315 166.371 196.521 165.853 196.522Z" fill="#E4E4E4"/>
<path d="M37.818 114.31C37.5958 114.31 37.3827 114.399 37.2255 114.556C37.0684 114.713 36.98 114.926 36.9797 115.148V184.887C36.98 185.109 37.0684 185.323 37.2255 185.48C37.3827 185.637 37.5958 185.725 37.818 185.726H152.886C153.108 185.725 153.321 185.637 153.478 185.48C153.635 185.323 153.724 185.109 153.724 184.887V115.148C153.724 114.926 153.635 114.713 153.478 114.556C153.321 114.399 153.108 114.31 152.886 114.31H37.818Z" fill="white"/>
<path d="M154.003 132.272V127.853H137.731V114.031H133.311V127.853H104.341V114.031H99.9219V127.853H55.2388V114.031H50.8196V127.853H35.3684V132.272H50.8196V149.458H35.3684V153.877H50.8196V172.291H35.3684V176.71H74.6342V186.005H79.0535V176.71H99.9219V186.005H104.341V176.71H154.003V172.291H104.341V153.877H154.003V149.458H137.731V132.272H154.003ZM99.9219 132.272V137.673H55.2388V132.272H99.9219ZM55.2388 142.093H99.9219V149.458H55.2388V142.093ZM55.2388 172.291V153.877H74.6342V172.291H55.2388ZM99.9219 172.291H79.0535V153.877H99.9219V172.291ZM133.311 149.458H104.341V132.272H133.311V149.458Z" fill="#E6E6E6"/>
<path d="M102.132 157.873C105.25 157.873 107.778 155.345 107.778 152.226C107.778 149.108 105.25 146.58 102.132 146.58C99.013 146.58 96.4849 149.108 96.4849 152.226C96.4849 155.345 99.013 157.873 102.132 157.873Z" fill="#F08E42"/>
<path d="M254.428 197H0V196.39H254.539L254.428 197Z" fill="#CACACA"/>
<path d="M102.808 118.682C122.046 118.682 137.641 103.087 137.641 83.849C137.641 64.6112 122.046 49.016 102.808 49.016C83.5706 49.016 67.9753 64.6112 67.9753 83.849C67.9753 103.087 83.5706 118.682 102.808 118.682Z" fill="#F08E42"/>
<path d="M103.149 140.474L92.1443 121.675L81.1396 102.876L102.922 102.745L124.705 102.614L113.927 121.544L103.149 140.474Z" fill="#F08E42"/>
<path d="M103.088 96.1274C109.99 96.1274 115.585 90.5321 115.585 83.6299C115.585 76.7277 109.99 71.1323 103.088 71.1323C96.1857 71.1323 90.5903 76.7277 90.5903 83.6299C90.5903 90.5321 96.1857 96.1274 103.088 96.1274Z" fill="white"/>
<path d="M102.003 0.178984C102.003 0.178984 94.5491 -1.9206 92.3445 8.26238C90.1399 18.4454 91.5402 17.1624 91.5402 17.1624L108.179 15.2202C108.179 15.2202 113.183 3.27586 102.003 0.178984Z" fill="#2F2E41"/>
<path d="M91.163 44.8521C91.163 44.8521 79.9182 45.3726 81.8655 49.7865C82.0032 50.0985 82.1313 50.3908 82.25 50.6635C83.6419 53.8606 85.2441 56.9619 87.0461 59.9472L93.9574 71.3983L96.4723 70.0011L89.3951 51.604L95.7564 51.0847L91.163 44.8521Z" fill="#FFB6B6"/>
<path d="M120.812 49.5268L124.447 57.4459C124.447 57.4459 127.173 60.1722 130.159 71.0772C133.145 81.9822 133.794 81.5927 133.794 81.5927L130.843 82.5757L118.735 60.5617L112.763 53.032L114.58 49.0076L120.812 49.5268Z" fill="#FFB6B6"/>
<path d="M116.398 40.4393L121.621 50.1613C121.621 50.1613 133.464 73.4316 132.24 73.3543C130.864 73.2674 126.999 74.8712 125.813 76.4281C125.24 77.1796 116.871 58.8237 113.931 54.7197L107.57 49.7865C107.57 49.7865 89.5085 52.8264 89.4864 51.8379C89.4755 51.3536 95.4662 62.9712 94.2368 62.4564C92.8362 61.8699 89.5416 64.7236 88.0892 64.133C87.49 63.8893 83.2557 53.623 81.5416 49.4162C81.3266 48.8911 81.3154 48.3046 81.5103 47.7716C81.7051 47.2387 82.092 46.7977 82.595 46.5351C83.8832 45.8652 101.781 41.7782 101.781 41.7782L101.468 40.1797L102.767 37.5833L116.398 40.4393Z" fill="#2F2E41"/>
<path d="M105.687 11.7805C106.135 9.02032 104.26 6.41969 101.5 5.97179C98.7401 5.52389 96.1395 7.39833 95.6916 10.1585C95.2437 12.9186 97.1181 15.5192 99.8783 15.9671C102.638 16.415 105.239 14.5406 105.687 11.7805Z" fill="#FFB6B6"/>
<path d="M116.871 41.2194C117.151 42.0581 115.34 42.5399 112.816 42.0687C110.633 41.661 108.243 41.1768 106.358 40.7847C104.339 40.3641 102.897 40.0499 102.897 40.0499C102.897 40.0499 102.377 43.2955 100.69 42.906C99.2356 42.5711 94.8905 27.3936 93.7155 23.1991C93.6297 22.8928 93.6462 22.5669 93.7627 22.2709C93.8792 21.9749 94.0892 21.7251 94.3608 21.5595L100.329 17.9154C100.329 17.9154 104.441 16.5029 105.941 16.4627C107.44 16.4224 110.037 16.033 110.037 16.033C110.037 16.033 113.023 16.2926 113.542 18.4996C114.061 20.7065 116.228 33.7918 116.268 36.9342C116.312 40.3811 116.033 38.7045 116.871 41.2194Z" fill="#CACACA"/>
<path d="M102.582 4.46606C102.582 4.46606 100.483 10.03 95.3389 12.3395L94.499 7.40548L102.582 4.46606Z" fill="#2F2E41"/>
<path d="M105.623 10.3857C106.017 10.3857 106.337 9.77538 106.337 9.02255C106.337 8.26972 106.017 7.65942 105.623 7.65942C105.228 7.65942 104.909 8.26972 104.909 9.02255C104.909 9.77538 105.228 10.3857 105.623 10.3857Z" fill="#FFB6B6"/>
<path d="M98.5649 72.6966L88.5285 77.3107L88.4702 77.1837C87.9939 76.1477 87.9487 74.9649 88.3444 73.8955C88.7402 72.8261 89.5445 71.9577 90.5805 71.4813L90.5807 71.4812L96.7106 68.6631L98.5649 72.6966Z" fill="#2F2E41"/>
<path d="M129.346 81.9147L135.503 79.155L135.503 79.1548C136.544 78.6885 137.727 78.6546 138.792 79.0605C139.858 79.4665 140.719 80.2791 141.185 81.3196L141.242 81.4471L131.162 85.9656L129.346 81.9147Z" fill="#2F2E41"/>
<path opacity="0.2" d="M112.679 29.2036L111.504 42.1305L113.593 42.2292L112.679 29.2036Z" fill="black"/>
<path d="M104.487 53.353C104.736 53.075 104.921 52.7458 105.029 52.3885C105.137 52.0313 105.165 51.6547 105.112 51.2853C105.059 50.9159 104.925 50.5627 104.721 50.2505C104.516 49.9384 104.246 49.6748 103.928 49.4785L99.4128 26.6694L94.2275 28.6532L100.296 50.45C100.002 51.0051 99.9213 51.6489 100.07 52.2594C100.218 52.87 100.586 53.4049 101.102 53.7627C101.619 54.1205 102.249 54.2765 102.872 54.201C103.496 54.1254 104.071 53.8237 104.487 53.353Z" fill="#FFB6B6"/>
<path d="M100.555 30.5136L94.8615 31.5164C94.6995 31.545 94.5333 31.5382 94.3741 31.4967C94.2149 31.4552 94.0666 31.3799 93.9392 31.2759C93.8117 31.1719 93.7082 31.0416 93.6357 30.894C93.5631 30.7463 93.5232 30.5848 93.5187 30.4204L93.3616 24.6588C93.2202 23.8291 93.4136 22.9772 93.8994 22.2899C94.3853 21.6026 95.1238 21.136 95.9531 20.9924C96.7825 20.8488 97.6349 21.04 98.3235 21.524C99.0121 22.008 99.4806 22.7454 99.6264 23.5743L101.443 29.0247C101.495 29.1808 101.512 29.3462 101.495 29.5098C101.477 29.6733 101.424 29.8311 101.34 29.9724C101.256 30.1137 101.142 30.2352 101.006 30.3286C100.871 30.422 100.717 30.4851 100.555 30.5136H100.555Z" fill="#CACACA"/>
<path d="M108.852 52.9517C109.177 52.7682 109.458 52.5157 109.675 52.212C109.892 51.9083 110.039 51.5607 110.107 51.1937C110.175 50.8267 110.162 50.4493 110.068 50.088C109.975 49.7268 109.803 49.3904 109.565 49.1027L112.602 26.0502L107.055 26.2665L105.814 48.8583C105.357 49.2897 105.074 49.8736 105.019 50.4996C104.964 51.1255 105.14 51.7499 105.515 52.2545C105.889 52.759 106.436 53.1087 107.051 53.2372C107.666 53.3657 108.307 53.2641 108.852 52.9517Z" fill="#FFB6B6"/>
<path d="M112.452 30.0577L106.737 29.1818C106.575 29.1569 106.419 29.0972 106.282 29.0069C106.145 28.9165 106.028 28.7976 105.941 28.6582C105.853 28.5188 105.797 28.3623 105.776 28.1992C105.754 28.0361 105.768 27.8703 105.817 27.7131L107.516 22.2054C107.648 21.3742 108.104 20.6293 108.785 20.134C109.465 19.6388 110.314 19.4337 111.146 19.5636C111.978 19.6936 112.724 20.148 113.221 20.8272C113.718 21.5065 113.925 22.3551 113.797 23.187L113.77 28.932C113.769 29.0965 113.733 29.2589 113.664 29.4081C113.594 29.5573 113.494 29.6898 113.369 29.7966C113.244 29.9035 113.097 29.9821 112.939 30.0271C112.78 30.0722 112.614 30.0826 112.452 30.0577Z" fill="#CACACA"/>
</g>
<defs>
<clipPath id="clip0_1_817">
<rect width="254.539" height="197" fill="white"/>
</clipPath>
</defs>
</svg>
