<svg width="22" height="28" viewBox="0 0 22 28" fill="none" xmlns="http://www.w3.org/2000/svg">
<path d="M13.1478 14.7939C12.6942 14.8001 13.2331 15.0324 13.8256 15.1259C13.9899 14.9948 14.1374 14.8632 14.2698 14.7346C13.9015 14.8268 13.5262 14.829 13.1478 14.7939Z" fill="black"/>
<path d="M15.5821 14.1733C15.8533 13.7917 16.0501 13.3743 16.1196 12.9427C16.0586 13.2501 15.8961 13.5156 15.7419 13.7963C14.8938 14.3425 15.6617 13.4722 15.7413 13.1409C14.8297 14.3155 15.6156 13.8451 15.5821 14.1733Z" fill="black"/>
<path d="M16.482 11.7811C16.5373 10.9456 16.3214 11.2101 16.2488 11.5284C16.3332 11.5737 16.4003 12.1177 16.482 11.7811Z" fill="black"/>
<path d="M11.4268 0.361084C11.6691 0.405176 11.9503 0.439331 11.9099 0.498637C12.1759 0.43871 12.2357 0.384682 11.4268 0.361084Z" fill="black"/>
<path d="M11.9101 0.498657L11.7397 0.534986L11.8986 0.520082L11.9101 0.498657Z" fill="black"/>
<path d="M19.4618 12.0979C19.4891 12.848 19.2477 13.2126 19.0294 13.8572L18.6367 14.0568C18.3158 14.6946 18.6686 14.4617 18.4388 14.9688C17.9371 15.4243 16.9186 16.3937 16.5925 16.4825C16.3542 16.4772 16.7538 16.195 16.806 16.0847C16.1352 16.5555 16.2676 16.7914 15.2415 17.078L15.2118 17.0094C12.6823 18.2266 9.16839 15.8149 9.21455 12.5248C9.18783 12.7335 9.13772 12.6813 9.08185 12.7651C8.95128 11.0726 9.84646 9.37257 11.3562 8.67735C12.8329 7.93028 14.5641 8.23643 15.6211 9.24526C15.0405 8.46714 13.8839 7.64213 12.5141 7.71851C11.1716 7.74087 9.91539 8.61308 9.49634 9.56042C8.80886 10.0029 8.72869 11.267 8.42929 11.4986C8.02573 14.5291 9.18752 15.8379 11.1531 17.3783C11.4616 17.5913 11.2399 17.6239 11.2812 17.786C10.6284 17.4736 10.0308 17.0016 9.53885 16.4238C9.8 16.8141 10.0815 17.1935 10.4456 17.4916C9.82946 17.2789 9.00685 15.9661 8.76726 15.9127C9.82854 17.8558 13.0725 19.3205 14.7721 18.5936C13.9856 18.6234 12.9869 18.6101 12.1039 18.2763C11.7319 18.081 11.2281 17.677 11.3183 17.6015C13.637 18.4868 16.0317 18.2716 18.0376 16.6275C18.5484 16.2207 19.1059 15.5292 19.2671 15.5199C19.0245 15.8932 19.3087 15.6994 19.1223 16.0288C19.63 15.1902 18.9009 15.6873 19.6476 14.5807L19.9233 14.9688C19.8201 14.272 20.769 13.4268 20.6725 12.3258C20.8902 11.9892 20.9151 12.6884 20.6843 13.4628C21.0047 12.6037 20.769 12.4655 20.851 11.7563C20.9394 11.9948 21.0569 12.2478 21.1167 12.4997C20.9078 11.6691 21.3302 11.1015 21.4353 10.6186C21.3314 10.572 21.1131 10.9856 21.0627 10.0051C21.0703 9.57905 21.179 9.78181 21.2206 9.67686C21.1392 9.62873 20.9245 9.30208 20.7942 8.6758C20.8881 8.52831 21.0469 9.05741 21.1756 9.07883C21.0927 8.58109 20.9503 8.20135 20.9442 7.81912C20.5677 7.01491 20.8109 7.92655 20.5061 7.47384C20.1052 6.19642 20.8383 7.17731 20.8881 6.59729C21.4948 7.49619 21.8406 8.89036 22.0001 9.46758C21.8786 8.76367 21.6827 8.08149 21.4432 7.42167C21.6281 7.50147 21.1459 5.97379 21.6833 6.98541C21.1097 4.82897 19.2304 2.81379 17.5011 1.86862C17.7121 2.06641 17.979 2.31481 17.8837 2.35394C17.0231 1.83074 17.1743 1.78944 17.051 1.56836C16.3511 1.2768 16.3043 1.59227 15.8413 1.56898C14.5204 0.852341 14.2659 0.928414 13.0504 0.480046L13.1056 0.744596C12.2308 0.446512 12.0862 0.856998 11.141 0.745217C11.0836 0.699573 11.444 0.578787 11.741 0.535006C10.895 0.649272 10.9345 0.364228 10.1067 0.566367C10.3104 0.420119 10.5267 0.322932 10.7441 0.19873C10.0545 0.24158 9.09703 0.609216 9.39249 0.274493C8.26744 0.788067 6.26907 1.50875 5.14766 2.58402L5.11243 2.34307C4.59865 2.9737 2.87174 4.22659 2.73419 5.04414L2.59663 5.07675C2.32971 5.53971 2.15633 6.06415 1.94437 6.54015C1.59486 7.14967 1.4318 6.77489 1.4816 6.87053C0.793813 8.29636 0.45159 9.49429 0.156738 10.4773C0.366869 10.7987 0.1619 12.4124 0.241155 13.7038C-0.1038 20.0828 4.61929 26.2758 9.78208 27.7053C10.5388 27.9826 11.6639 27.9727 12.621 28C11.492 27.6696 11.3462 27.8252 10.2458 27.433C9.45231 27.0505 9.27862 26.6142 8.71624 26.1153L8.93883 26.5174C7.83655 26.1184 8.2978 26.0237 7.4008 25.7333L7.63856 25.4163C7.28116 25.3884 6.69206 24.8009 6.53112 24.4745L6.14001 24.4904C5.67056 23.8986 5.42004 23.471 5.43856 23.1397L5.31224 23.3701C5.16922 23.1189 3.58412 21.1475 4.40643 21.6064C4.25369 21.4642 4.05054 21.3745 3.83039 20.9649L3.99771 20.7696C3.60265 20.2489 3.26953 19.5816 3.29504 19.3593C3.50608 19.6506 3.65245 19.7052 3.7976 19.7552C2.79826 17.2202 2.74208 19.6158 1.98567 17.1749L2.14539 17.1619C2.02302 16.9722 1.94802 16.7675 1.84963 16.566L1.91947 15.8565C1.20041 15.007 1.71845 12.2407 1.82261 10.7239C1.89396 10.1072 2.42294 9.45051 2.82468 8.42056L2.57993 8.37771C3.04817 7.54308 5.25272 5.02458 6.27423 5.15375C6.76889 4.51846 6.17584 5.15127 6.07898 4.99167C7.16577 3.84187 7.50738 4.17939 8.24072 3.97228C9.03114 3.49256 7.56204 4.15983 7.93676 3.7894C9.30413 3.43263 8.90542 2.97774 10.6888 2.79672C10.8771 2.90601 10.2525 2.96563 10.0958 3.10753C11.2345 2.53745 13.6999 2.66755 15.302 3.42362C17.1595 4.31198 19.2477 6.93667 19.3303 9.4061L19.4241 9.43188C19.3768 10.4137 19.5711 11.5492 19.2337 12.5919L19.4618 12.0979Z" fill="black"/>
<path d="M8.19469 15.4305L8.13062 15.7556C8.42911 16.1702 8.66596 16.6192 9.04645 16.9421C8.77255 16.3959 8.5694 16.1702 8.19469 15.4305Z" fill="black"/>
<path d="M8.89959 15.4025C8.74169 15.2237 8.64877 15.0088 8.5437 14.7952C8.64391 15.1712 8.84918 15.4944 9.03957 15.8236L8.89959 15.4025Z" fill="black"/>
<path d="M21.3751 12.6298L21.3086 12.8012C21.1865 13.6886 20.9221 14.5667 20.5176 15.3811C20.9646 14.522 21.2527 13.5821 21.3751 12.6298Z" fill="black"/>
<path d="M11.5168 0.138484C11.8232 0.0239085 12.2705 0.0754524 12.5966 0C12.1721 0.036329 11.7497 0.0580641 11.3328 0.112402L11.5168 0.138484Z" fill="black"/>
<path d="M0.745747 5.99524C0.816499 6.66406 0.253821 6.92396 0.870247 6.48242C1.20123 5.72044 0.741496 6.27221 0.745747 5.99524Z" fill="black"/>
<path d="M0.0206415 9.09213C0.163057 8.64593 0.188564 8.37828 0.242919 8.11963C-0.149711 8.6332 0.061939 8.74281 0.0206415 9.09213Z" fill="black"/>
</svg>
