<svg width="40" height="30" viewBox="0 0 40 30" fill="none" xmlns="http://www.w3.org/2000/svg">
<rect x="0.25" y="0.25" width="39.5" height="29.5" rx="1.75" fill="white" stroke="#F5F5F5" stroke-width="0.5"/>
<mask id="mask0_373_2150" style="mask-type:luminance" maskUnits="userSpaceOnUse" x="0" y="0" width="40" height="30">
<rect x="0.25" y="0.25" width="39.5" height="29.5" rx="1.75" fill="white" stroke="white" stroke-width="0.5"/>
</mask>
<g mask="url(#mask0_373_2150)">
<path fill-rule="evenodd" clip-rule="evenodd" d="M0 10H40V0H0V10Z" fill="#1A78D6"/>
<path fill-rule="evenodd" clip-rule="evenodd" d="M0 30H40V20H0V30Z" fill="#1A78D6"/>
<path d="M20.0002 18.3333C21.7774 18.3333 23.1907 16.8254 23.1907 15C23.1907 13.1746 21.7774 11.6667 20.0002 11.6667C18.223 11.6667 16.8097 13.1746 16.8097 15C16.8097 16.8254 18.223 18.3333 20.0002 18.3333Z" stroke="#DBCD92" stroke-width="0.666667"/>
<path fill-rule="evenodd" clip-rule="evenodd" d="M20 13L21.9047 17H18.0952L20 13Z" fill="#9CDDEE"/>
</g>
</svg>
