<svg width="288" height="385" viewBox="0 0 288 385" fill="none" xmlns="http://www.w3.org/2000/svg">
<g opacity="0.025436">
<path fill-rule="evenodd" clip-rule="evenodd" d="M183.945 292.29C194.728 296.918 200.754 306.03 206.58 314.843C209.519 319.291 212.558 323.889 216.132 327.718C226.707 339.042 242.931 345.506 258.468 344.589C314.155 341.303 309.866 265.208 358.366 246.825C369.632 242.554 381.688 241.692 392.889 238.59C423.227 230.19 428.457 207.559 409.782 182.684C396.736 165.309 376.144 149.853 385.509 124.372C392.616 105.031 408.862 91.6161 417.6 74.1649C423.177 63.0251 425.009 48.3399 416.535 40.644C411.937 36.4699 405.187 35.1843 399.189 34.4757C363.657 30.2876 332.192 45.0002 297.002 50.5389C267.13 55.2404 248.65 42.9358 240.5 12.9248C227.126 -36.3252 189.721 -54.3205 188.046 -55.1029C141.599 -76.5722 77.7357 -22.3846 76.6195 21.9538C76.0311 45.3671 95.3989 61.383 103.993 82.8857C124.802 134.951 68.5909 162.834 50.9524 201.731C41.1118 223.432 44.3383 246.171 60.0397 265.759C77.822 287.943 97.7909 299.344 119.386 299.654C127.348 299.768 135.445 297.303 144.016 294.693C157.62 290.553 170.835 286.662 183.945 292.29ZM212.479 331.13C201.587 319.467 196.59 303.159 181.973 296.884C162.356 288.464 140.75 304.96 119.314 304.653C96.1534 304.324 74.8979 292.29 56.1376 268.886C39.1995 247.753 35.7396 223.171 46.3983 199.665C64.5804 159.568 118.869 133.581 99.3498 84.7415C91.0294 63.9224 70.9863 47.0731 71.6215 21.8279C72.256 -3.47755 92.4643 -33.4375 120.76 -51.029C160.908 -75.9903 189.469 -59.7314 190.155 -59.638C191.829 -58.8569 231.334 -39.9096 245.325 11.6135C264.655 82.7927 331.86 21.5046 399.776 29.5096C406.559 30.3096 414.254 31.8182 419.897 36.9423C431.023 47.0461 428.022 64.5139 422.072 76.4028C413.026 94.471 396.983 107.648 390.202 126.097C381.976 148.485 400.71 162.275 413.782 179.683C434.539 207.331 428.022 234.048 394.224 243.408C382.838 246.562 370.822 247.452 360.139 251.5C314.277 268.883 317.738 346.1 258.763 349.581C241.816 350.582 224.067 343.542 212.479 331.13Z" fill="#81391B"/>
<path fill-rule="evenodd" clip-rule="evenodd" d="M191.373 272.915C205.482 278.976 210.137 293.714 219.238 303.4C228.365 313.098 242.335 318.637 255.698 317.853C303.599 315.048 300.268 249.73 342.111 233.749C351.927 229.998 362.076 229.28 371.864 226.524C398.06 219.176 402.22 199.625 386.47 178.434C375.302 163.4 357.625 150.004 365.685 127.94C371.773 111.251 385.711 99.5877 393.147 84.5762C397.878 75.0239 399.42 62.4377 392.198 55.8497C388.276 52.2725 382.504 51.1456 377.372 50.5144C346.858 46.7724 319.789 59.24 289.447 63.884C247.185 70.3898 242.553 34.6421 240.471 31.363C233.313 5.37748 216.65 -15.3842 195.064 -26.8575C155.18 -45.0994 100.145 1.24312 99.0045 39.5584C98.4277 59.677 114.943 73.4883 122.285 92.0942C140.101 137.067 91.876 161.219 76.8236 194.752C68.4468 213.401 71.2548 232.943 84.7337 249.778C100.012 268.861 117.16 278.703 135.704 279.033C142.54 279.157 149.504 277.071 156.878 274.863C168.571 271.36 180.02 268.037 191.373 272.915ZM240.046 320.806C207.296 312.035 208.799 285.454 189.54 277.181C172.705 269.95 154.088 284.01 135.62 283.676C115.629 283.323 97.2891 272.892 81.1088 252.68C66.4858 234.417 63.4607 213.168 72.588 192.849C88.0924 158.312 134.58 135.737 117.966 93.8011C110.862 75.7965 93.7377 61.2603 94.3644 39.4241C95.5823 -1.57888 153.51 -50.972 196.997 -31.081L196.984 -31.0516C203.822 -28.5819 233.981 -9.68506 244.947 30.1287L244.948 30.1268C261.797 91.068 319.301 38.7151 377.938 45.9057C383.794 46.6258 390.442 47.9641 395.327 52.4192C404.95 61.1975 402.41 76.338 397.307 86.6357C389.655 102.087 375.801 113.762 370.047 129.533C363.033 148.736 379.033 160.637 390.196 175.665C407.919 199.507 402.431 222.773 373.12 230.993C363.386 233.735 352.971 234.57 343.768 238.086C304.333 253.148 306.925 319.506 255.969 322.488C250.656 322.801 245.252 322.201 240.046 320.806Z" fill="#81391B"/>
<path fill-rule="evenodd" clip-rule="evenodd" d="M198.8 253.54C210.72 258.666 214.658 270.974 222.342 279.083C230.023 287.152 241.745 291.764 252.929 291.118C293.077 288.791 290.63 234.268 325.855 220.673C334.1 217.488 342.651 216.816 350.838 214.458C372.382 208.307 376.346 192.176 363.154 174.184C353.874 161.497 339.111 150.15 345.861 131.509C350.967 117.379 362.514 107.654 368.692 94.9887C372.581 87.0238 373.831 76.5345 367.861 71.0543C364.615 68.0757 359.816 67.1077 355.551 66.5542C330.084 63.2615 307.322 73.4867 281.89 77.2301C260.15 80.4698 246.591 71.5021 240.443 49.8046L240.442 49.8012C231.137 16.6744 206.136 3.32522 202.724 1.65865L202.696 1.66386C202.334 1.66467 183.21 -9.64884 155.443 7.59311C136.011 19.6576 122.008 40.0425 121.389 57.1658C120.826 73.9704 134.505 85.6358 140.575 101.305C155.399 139.181 115.163 159.6 102.696 187.771C95.7789 203.37 98.1703 219.715 109.427 233.798C122.2 249.779 136.532 258.06 152.023 258.413C157.733 258.547 163.566 256.839 169.743 255.029C179.709 252.11 189.241 249.435 198.8 253.54ZM219.234 282.035C211.277 273.641 207.575 261.978 197.108 257.479C183.089 251.448 167.408 263.06 151.925 262.698C135.105 262.316 119.682 253.495 106.079 236.475C93.7744 221.08 91.1814 203.167 98.7783 186.034C111.644 156.956 150.316 137.955 136.582 102.862C130.712 87.7098 116.488 75.4176 117.105 57.0165C118.358 22.3352 167.141 -19.0545 203.846 -2.51983L203.842 -2.51053C207.558 -1.24637 215.397 4.32098 220.459 8.98048C228.438 16.3258 239.097 29.1674 244.567 48.6411C258.917 99.2765 306.827 55.9345 356.101 62.3032C361.034 62.9431 366.633 64.1078 370.759 67.8965C378.878 75.35 376.796 88.1615 372.545 96.8683C366.141 109.992 354.701 119.65 349.892 132.967C344.087 148.995 357.371 159.018 366.612 171.65C381.464 191.905 376.596 211.56 352.019 218.578C343.854 220.929 335.09 221.7 327.399 224.671C294.206 237.484 296.236 292.902 253.176 295.398C240.597 296.122 227.644 290.871 219.234 282.035Z" fill="#81391B"/>
<path fill-rule="evenodd" clip-rule="evenodd" d="M206.227 234.166C215.944 238.349 219.192 248.25 225.444 254.764C231.676 261.205 241.15 264.893 250.159 264.381C282.563 262.534 280.99 218.81 309.598 207.598C321.555 202.908 340.368 203.768 344.972 190.341C346.958 184.552 345.134 177.301 339.836 169.928C332.425 159.573 320.596 150.292 326.037 135.081C330.11 123.637 339.364 115.614 344.238 105.405C347.06 99.492 348.566 90.9315 343.523 86.2583C340.954 83.8759 337.129 83.0678 333.726 82.5916C295.272 77.2408 253.38 112.732 240.416 68.2462C232.589 41.3838 212.388 31.097 209.733 29.867L209.664 29.8798C209.372 29.8816 193.82 20.8658 171.364 34.8296C155.715 44.5594 144.369 60.9844 143.775 74.7704C143.194 88.2464 154.04 97.8393 158.867 110.515C170.597 141.327 138.445 157.994 128.57 180.787C123.113 193.336 125.085 206.485 134.121 217.818C144.391 230.702 155.909 237.422 168.347 237.793C172.929 237.937 177.632 236.606 182.609 235.197C190.622 232.93 198.41 230.797 206.227 234.166ZM222.616 257.489C216.132 250.739 213.059 241.385 204.674 237.774C193.359 232.916 180.821 242.112 168.228 241.721C154.772 241.315 141.915 233.9 131.048 220.269C121.062 207.743 118.902 193.166 124.965 179.223C135.206 155.581 165.966 140.204 155.195 111.912C150.52 99.6373 139.203 89.5666 139.849 74.6023C141.064 46.4063 180.666 12.7988 210.693 26.0393L210.679 26.0694C213.407 26.918 219.343 30.6711 224.409 35.2577C230.908 41.1417 239.614 51.4504 244.188 67.1472C255.951 107.524 294.449 73.1607 334.27 78.702C338.279 79.2608 342.828 80.2564 346.192 83.376C352.803 89.4994 351.18 99.9814 347.783 107.098C342.75 117.644 333.545 125.705 329.737 136.402C325.135 149.27 335.33 156.878 343.029 167.638C354.824 184.057 351.025 200.222 330.925 206.159C328.144 206.98 325.294 207.582 322.538 208.163C306.531 211.542 300.442 213.822 286.543 238.235C278.44 252.468 270.062 267.183 250.382 268.305C240.298 268.877 229.649 264.761 222.616 257.489Z" fill="#81391B"/>
<path fill-rule="evenodd" clip-rule="evenodd" d="M213.655 214.791C221.147 218.023 223.744 225.576 228.539 230.436C233.301 235.262 240.524 238.026 247.39 237.646C260.762 236.904 266.625 226.945 272.83 216.4C284.243 197.014 289.718 194.806 302.61 191.891C304.657 191.426 306.773 190.949 308.778 190.328C321.656 186.345 324.143 176.648 316.515 165.666C311.013 157.687 302.083 150.439 306.211 138.655C309.293 129.787 316.169 123.678 319.78 115.827C321.826 111.383 322.897 104.953 319.183 101.46C317.285 99.6741 314.434 99.0258 311.895 98.6296C296.474 96.2359 282.445 101.928 266.768 103.924C253.108 105.664 244.479 100.027 240.391 86.6958C234.506 67.5058 219.642 59.0847 216.785 58.0667L216.634 58.0945C216.379 58.0988 204.524 51.3533 187.351 62.0342C175.464 69.425 166.75 81.9065 166.159 92.3852C165.583 102.591 173.571 109.943 177.16 119.731C185.859 143.448 161.731 156.371 154.446 173.798C150.445 183.299 151.999 193.257 158.816 201.839C166.581 211.623 175.281 216.781 184.675 217.174C188.134 217.325 191.704 216.372 195.487 215.363C201.693 213.705 207.625 212.19 213.655 214.791ZM225.997 232.944C220.958 227.835 218.562 220.799 212.24 218.071C203.692 214.393 194.162 221.167 184.522 220.741C174.193 220.311 164.338 214.54 156.017 204.06C148.352 194.41 146.624 183.172 151.153 172.416C158.733 154.283 181.675 142.412 173.807 120.961C170.352 111.536 161.942 103.715 162.594 92.1832C163.836 70.1404 194.401 44.78 217.526 54.5951C219.876 55.2352 224.592 58.2003 228.371 61.5256C233.393 65.948 240.149 73.7234 243.806 85.6507C253.036 115.748 281.894 90.3574 312.446 95.1007C315.527 95.5855 319.023 96.4076 321.629 98.8577C326.725 103.65 325.566 111.799 323.024 117.32C319.273 125.472 312.415 131.675 309.585 139.831C306.183 149.543 313.815 155.464 319.453 163.633C328.686 176.929 324.691 189.146 309.833 193.74C294.266 198.553 289.818 194.583 275.91 218.211C269.499 229.102 262.871 240.364 247.588 241.214C239.634 241.651 231.556 238.58 225.997 232.944Z" fill="#81391B"/>
<path fill-rule="evenodd" clip-rule="evenodd" d="M221.084 195.418C226.349 197.699 228.278 202.854 231.627 206.104C234.939 209.314 239.918 211.156 244.623 210.911C261.525 210.017 261.779 187.872 277.067 181.454C280.683 179.933 284.256 179.438 287.73 178.269C296.32 175.386 298.026 168.878 293.182 161.387C289.699 155.991 283.61 150.545 286.382 142.239C288.445 136.059 293.014 131.644 295.316 126.264C296.593 123.281 297.233 118.974 294.836 116.655C293.606 115.466 291.726 114.981 290.046 114.662C269.704 110.869 248.129 128.202 240.37 105.162C235.965 92.0784 225.656 86.8033 223.811 86.272L223.609 86.3096C223.371 86.3152 215.304 81.7935 203.335 89.2401C195.209 94.2948 189.126 102.837 188.543 110.013C187.984 116.859 193.161 122.21 195.458 128.961C199.24 140.067 193.282 147.879 187.521 155.432C182.158 162.461 173.479 173.14 183.511 185.863C188.779 192.549 194.671 196.144 201.017 196.554C203.353 196.715 205.797 196.137 208.383 195.526C212.797 194.482 216.871 193.592 221.084 195.418ZM229.389 208.41C225.818 204.946 224.061 200.212 219.806 198.368C214.057 195.865 207.484 200.22 200.805 199.762C193.61 199.296 186.759 195.18 180.986 187.852C175.657 181.094 174.36 173.2 177.332 165.624C182.29 152.986 197.396 144.625 192.414 129.997C190.175 123.415 184.677 117.85 185.338 109.752C186.588 94.406 207.759 76.5827 224.36 83.149L224.36 83.1509C230.177 84.5917 239.6 92.803 243.418 104.136C250.094 123.96 269.549 107.57 290.638 111.503C292.789 111.912 295.23 112.564 297.071 114.345C300.64 117.797 300.03 123.419 298.271 127.529C297.138 130.175 295.558 132.545 294.03 134.838C287.284 144.956 287.258 147.794 293.499 156.264C297.103 161.156 300.607 166.701 298.427 172.928C296.246 179.167 289.932 181.134 284.27 182.582C276.068 184.674 273 185.86 265.284 198.192C260.559 205.741 255.675 213.546 244.792 214.12C239.158 214.414 233.393 212.294 229.389 208.41Z" fill="#81391B"/>
<path fill-rule="evenodd" clip-rule="evenodd" d="M228.516 176.045C231.528 177.365 232.792 180.108 234.683 181.744C236.577 183.381 239.262 184.29 241.861 184.174C246.968 183.941 249.476 180.492 252.379 176.498C257.341 169.673 259.353 168.709 264.257 167.08C266.773 166.242 269.636 165.315 270.612 162.617C271.581 159.945 270.043 157.331 268.724 155.175C265.111 149.261 265.484 146.842 268.931 140.668C270.114 138.549 272.664 134.113 270.47 131.83C269.886 131.224 269.003 130.918 268.136 130.679C257.065 127.679 245.495 135.758 240.376 123.682C237.467 116.822 231.743 114.604 230.867 114.471L230.612 114.518L230.267 114.408C222.319 111.865 211.991 120.318 210.917 127.687C210.382 131.367 212.681 134.267 213.767 138.236C217.424 151.583 198.988 157.961 208.211 169.891C210.977 173.474 214.078 175.511 217.411 175.942C218.625 176.1 219.94 175.896 221.334 175.68C223.836 175.292 226.142 175.004 228.516 176.045ZM232.813 183.905C230.751 182.121 229.581 179.632 227.369 178.661C224.319 177.332 220.754 179.258 217.043 178.776C212.988 178.254 209.149 175.782 205.95 171.638C202.964 167.775 202.093 163.243 203.499 158.877C205.803 151.713 213.165 146.849 211.013 138.99C209.985 135.252 207.416 131.894 208.09 127.276C209.403 118.265 221.322 108.682 230.935 111.623C233.372 111.779 239.832 115.082 243.007 122.567C244.599 126.324 247.205 127.927 251.454 127.767C256.135 127.588 268.438 125.589 272.531 129.852C274.242 131.632 274.618 134.561 273.536 137.687C272.988 139.269 272.194 140.688 271.426 142.062C268.3 147.651 268.281 148.971 271.164 153.686C273.088 156.836 274.604 159.99 273.299 163.592C271.939 167.346 268.46 168.693 265.156 169.791C260.786 171.242 259.257 171.899 254.691 178.18C251.632 182.384 248.472 186.733 241.991 187.029C238.771 187.173 235.314 186.067 232.813 183.905Z" fill="#81391B"/>
<path d="M234.683 181.744L234.356 182.122L234.356 182.122L234.683 181.744ZM241.861 184.174L241.884 184.674L241.884 184.674L241.861 184.174ZM252.379 176.498L251.975 176.204L251.975 176.204L252.379 176.498ZM264.257 167.08L264.415 167.554L264.415 167.554L264.257 167.08ZM270.612 162.617L270.142 162.447L270.142 162.447L270.612 162.617ZM268.724 155.175L268.298 155.436L268.298 155.436L268.724 155.175ZM268.931 140.668L268.494 140.424L268.494 140.424L268.931 140.668ZM270.47 131.83L270.83 131.484L270.83 131.484L270.47 131.83ZM268.136 130.679L268.269 130.197L268.267 130.196L268.136 130.679ZM240.376 123.682L240.836 123.487L240.836 123.487L240.376 123.682ZM230.867 114.471L230.942 113.976L230.858 113.964L230.775 113.979L230.867 114.471ZM230.612 114.518L230.46 114.994L230.58 115.033L230.704 115.01L230.612 114.518ZM230.267 114.408L230.115 114.884L230.115 114.884L230.267 114.408ZM210.917 127.687L210.422 127.615L210.422 127.616L210.917 127.687ZM213.767 138.236L213.285 138.368L213.285 138.368L213.767 138.236ZM208.211 169.891L208.607 169.586L208.607 169.585L208.211 169.891ZM217.411 175.942L217.476 175.446L217.475 175.446L217.411 175.942ZM221.334 175.68L221.41 176.174L221.41 176.174L221.334 175.68ZM227.369 178.661L227.57 178.203L227.569 178.203L227.369 178.661ZM217.043 178.776L217.108 178.28L217.107 178.28L217.043 178.776ZM205.95 171.638L206.346 171.333L206.346 171.332L205.95 171.638ZM203.499 158.877L203.975 159.03L203.975 159.03L203.499 158.877ZM211.013 138.99L211.495 138.858L211.495 138.857L211.013 138.99ZM208.09 127.276L208.585 127.349L208.585 127.348L208.09 127.276ZM230.935 111.623L230.789 112.101L230.845 112.118L230.903 112.122L230.935 111.623ZM243.007 122.567L243.467 122.372L243.467 122.372L243.007 122.567ZM251.454 127.767L251.472 128.267L251.473 128.267L251.454 127.767ZM272.531 129.852L272.17 130.198L272.17 130.198L272.531 129.852ZM273.536 137.687L274.008 137.85L274.008 137.85L273.536 137.687ZM271.426 142.062L271.862 142.306L271.862 142.305L271.426 142.062ZM271.164 153.686L271.59 153.425L271.59 153.425L271.164 153.686ZM273.299 163.592L273.769 163.763L273.769 163.762L273.299 163.592ZM265.156 169.791L265.314 170.266L265.314 170.266L265.156 169.791ZM254.691 178.18L255.095 178.474L255.095 178.474L254.691 178.18ZM241.991 187.029L242.013 187.528L242.014 187.528L241.991 187.029ZM228.315 176.503C229.724 177.12 230.736 178.074 231.644 179.106C232.108 179.633 232.517 180.146 232.964 180.672C233.401 181.186 233.854 181.687 234.356 182.122L235.01 181.365C234.567 180.982 234.153 180.527 233.726 180.025C233.31 179.536 232.86 178.974 232.395 178.445C231.446 177.367 230.32 176.29 228.717 175.587L228.315 176.503ZM234.356 182.122C236.351 183.847 239.162 184.795 241.884 184.674L241.839 183.675C239.362 183.785 236.803 182.916 235.01 181.365L234.356 182.122ZM241.884 184.674C247.264 184.428 249.903 180.755 252.784 176.792L251.975 176.204C249.049 180.23 246.672 183.454 241.839 183.675L241.884 184.674ZM252.784 176.793C255.258 173.39 256.965 171.492 258.639 170.241C260.305 168.995 261.966 168.368 264.415 167.554L264.1 166.605C261.644 167.421 259.847 168.09 258.041 169.44C256.242 170.784 254.463 172.782 251.975 176.204L252.784 176.793ZM264.415 167.554C265.661 167.139 267.059 166.683 268.264 165.978C269.482 165.265 270.542 164.279 271.082 162.788L270.142 162.447C269.705 163.653 268.846 164.479 267.76 165.114C266.661 165.757 265.369 166.182 264.099 166.605L264.415 167.554ZM271.082 162.788C271.617 161.312 271.451 159.868 270.999 158.541C270.551 157.225 269.807 155.988 269.151 154.915L268.298 155.436C268.96 156.519 269.645 157.667 270.052 158.864C270.457 160.051 270.576 161.25 270.142 162.447L271.082 162.788ZM269.151 154.915C267.357 151.979 266.612 150 266.68 148.036C266.747 146.054 267.642 144.001 269.367 140.912L268.494 140.424C266.772 143.508 265.757 145.752 265.68 148.002C265.603 150.269 266.478 152.458 268.298 155.436L269.151 154.915ZM269.367 140.912C269.953 139.863 270.915 138.177 271.445 136.458C271.966 134.766 272.13 132.836 270.83 131.484L270.109 132.177C271.004 133.108 270.99 134.537 270.489 136.164C269.996 137.763 269.092 139.354 268.494 140.424L269.367 140.912ZM270.83 131.484C270.142 130.768 269.134 130.435 268.269 130.197L268.003 131.161C268.873 131.4 269.631 131.679 270.109 132.177L270.83 131.484ZM268.267 130.196C265.425 129.426 262.565 129.371 259.821 129.519C258.45 129.593 257.098 129.718 255.793 129.833C254.484 129.947 253.222 130.051 252.01 130.084C249.581 130.151 247.407 129.934 245.54 129.001C243.688 128.076 242.079 126.419 240.836 123.487L239.916 123.878C241.232 126.984 242.989 128.845 245.093 129.896C247.18 130.938 249.551 131.152 252.038 131.084C253.283 131.049 254.572 130.943 255.881 130.829C257.193 130.714 258.524 130.59 259.875 130.517C262.574 130.372 265.312 130.432 268.005 131.161L268.267 130.196ZM240.836 123.487C239.342 119.963 237.122 117.627 235.159 116.154C234.178 115.418 233.261 114.897 232.527 114.549C231.808 114.209 231.233 114.021 230.942 113.976L230.792 114.965C230.939 114.987 231.408 115.126 232.099 115.453C232.776 115.774 233.636 116.261 234.559 116.954C236.404 118.338 238.501 120.541 239.916 123.878L240.836 123.487ZM230.775 113.979L230.52 114.027L230.704 115.01L230.958 114.962L230.775 113.979ZM230.764 114.042L230.419 113.932L230.115 114.884L230.46 114.994L230.764 114.042ZM230.419 113.932C226.232 112.592 221.495 114.162 217.719 116.927C213.942 119.693 210.985 123.755 210.422 127.615L211.412 127.76C211.923 124.251 214.667 120.402 218.31 117.734C221.953 115.066 226.354 113.681 230.115 114.884L230.419 113.932ZM210.422 127.616C210.136 129.582 210.613 131.324 211.267 133.032C211.933 134.771 212.75 136.413 213.285 138.368L214.25 138.104C213.698 136.09 212.823 134.298 212.201 132.674C211.568 131.021 211.163 129.472 211.412 127.759L210.422 127.616ZM213.285 138.368C215.044 144.786 211.517 149.511 208.479 154.328C206.981 156.703 205.6 159.116 205.208 161.715C204.811 164.351 205.438 167.122 207.816 170.197L208.607 169.585C206.373 166.696 205.846 164.195 206.197 161.863C206.554 159.494 207.824 157.241 209.325 154.862C212.284 150.17 216.148 145.032 214.249 138.104L213.285 138.368ZM207.816 170.197C210.634 173.848 213.842 175.985 217.347 176.438L217.475 175.446C214.313 175.037 211.321 173.101 208.607 169.586L207.816 170.197ZM217.347 176.438C218.645 176.607 220.035 176.387 221.41 176.174L221.257 175.186C219.846 175.405 218.605 175.593 217.476 175.446L217.347 176.438ZM221.41 176.174C223.919 175.785 226.09 175.527 228.315 176.503L228.717 175.587C226.195 174.481 223.752 174.799 221.257 175.186L221.41 176.174ZM233.14 183.526C232.147 182.667 231.379 181.65 230.527 180.653C229.694 179.68 228.787 178.738 227.57 178.203L227.168 179.119C228.163 179.556 228.946 180.344 229.767 181.303C230.568 182.24 231.417 183.358 232.486 184.283L233.14 183.526ZM227.569 178.203C225.9 177.476 224.115 177.652 222.381 177.906C220.607 178.167 218.876 178.51 217.108 178.28L216.979 179.272C218.921 179.524 220.827 179.145 222.527 178.896C224.266 178.64 225.788 178.518 227.169 179.119L227.569 178.203ZM217.107 178.28C213.218 177.779 209.487 175.403 206.346 171.333L205.555 171.944C208.81 176.162 212.758 178.728 216.979 179.272L217.107 178.28ZM206.346 171.332C203.453 167.59 202.623 163.228 203.975 159.03L203.024 158.723C201.562 163.258 202.475 167.96 205.555 171.944L206.346 171.332ZM203.975 159.03C204.533 157.295 205.401 155.687 206.373 154.115C206.859 153.329 207.367 152.557 207.875 151.782C208.381 151.01 208.885 150.234 209.356 149.452C211.239 146.318 212.626 142.986 211.495 138.858L210.53 139.122C211.552 142.852 210.334 145.882 208.498 148.936C208.039 149.701 207.544 150.461 207.038 151.234C206.534 152.005 206.017 152.789 205.523 153.589C204.534 155.189 203.617 156.876 203.023 158.724L203.975 159.03ZM211.495 138.857C211.229 137.892 210.867 136.958 210.49 136.042C210.111 135.117 209.722 134.221 209.383 133.292C208.711 131.446 208.265 129.542 208.585 127.349L207.596 127.204C207.242 129.628 207.743 131.712 208.444 133.634C208.791 134.589 209.195 135.521 209.565 136.422C209.939 137.331 210.282 138.218 210.53 139.122L211.495 138.857ZM208.585 127.348C209.217 123.014 212.422 118.473 216.694 115.372C220.965 112.272 226.185 110.693 230.789 112.101L231.082 111.145C226.072 109.612 220.526 111.354 216.106 114.563C211.687 117.771 208.277 122.527 207.596 127.204L208.585 127.348ZM230.903 112.122C231.983 112.191 234.113 112.993 236.389 114.743C238.646 116.478 240.997 119.109 242.546 122.762L243.467 122.372C241.842 118.54 239.375 115.777 236.999 113.95C234.642 112.138 232.324 111.211 230.967 111.124L230.903 112.122ZM242.546 122.762C243.371 124.708 244.479 126.143 245.972 127.062C247.463 127.979 249.283 128.349 251.472 128.267L251.435 127.267C249.376 127.345 247.769 126.993 246.496 126.21C245.226 125.428 244.234 124.183 243.467 122.372L242.546 122.762ZM251.473 128.267C252.656 128.222 254.326 128.061 256.185 127.917C258.057 127.771 260.146 127.639 262.212 127.644C264.28 127.649 266.307 127.793 268.059 128.19C269.817 128.589 271.244 129.233 272.17 130.198L272.892 129.506C271.772 128.339 270.126 127.634 268.28 127.215C266.427 126.794 264.318 126.649 262.214 126.644C260.108 126.639 257.987 126.773 256.108 126.92C254.216 127.067 252.592 127.223 251.435 127.267L251.473 128.267ZM272.17 130.198C273.707 131.797 274.109 134.505 273.063 137.523L274.008 137.85C275.128 134.617 274.778 131.467 272.891 129.505L272.17 130.198ZM273.063 137.523C272.532 139.057 271.76 140.438 270.989 141.818L271.862 142.305C272.627 140.937 273.443 139.481 274.008 137.85L273.063 137.523ZM270.989 141.817C269.435 144.597 268.58 146.43 268.542 148.191C268.503 149.971 269.299 151.594 270.737 153.946L271.59 153.425C270.146 151.062 269.51 149.668 269.542 148.212C269.574 146.738 270.291 145.116 271.862 142.306L270.989 141.817ZM270.737 153.946C272.66 157.095 274.047 160.06 272.829 163.422L273.769 163.762C275.161 159.919 273.516 156.577 271.59 153.425L270.737 153.946ZM272.829 163.422C271.56 166.924 268.322 168.212 264.999 169.317L265.314 170.266C268.598 169.174 272.317 167.768 273.769 163.763L272.829 163.422ZM264.999 169.317C262.816 170.041 261.268 170.589 259.696 171.775C258.133 172.953 256.573 174.74 254.286 177.886L255.095 178.474C257.374 175.339 258.862 173.656 260.298 172.573C261.724 171.498 263.126 170.992 265.314 170.266L264.999 169.317ZM254.286 177.885C251.213 182.111 248.181 186.245 241.968 186.529L242.014 187.528C248.763 187.22 252.052 182.658 255.095 178.474L254.286 177.885ZM241.969 186.529C238.869 186.668 235.538 185.6 233.14 183.526L232.486 184.283C235.089 186.534 238.674 187.678 242.013 187.528L241.969 186.529Z" fill="#F08E42"/>
<path d="M13.1478 120.794C12.6942 120.8 13.2331 121.032 13.8256 121.126C13.9899 120.995 14.1374 120.863 14.2698 120.735C13.9015 120.827 13.5262 120.829 13.1478 120.794Z" fill="black"/>
<path d="M15.5821 120.173C15.8533 119.792 16.0501 119.374 16.1196 118.943C16.0586 119.25 15.8961 119.516 15.7419 119.796C14.8938 120.343 15.6617 119.472 15.7413 119.141C14.8297 120.315 15.6156 119.845 15.5821 120.173Z" fill="black"/>
<path d="M16.4819 117.781C16.5371 116.946 16.3212 117.21 16.2487 117.528C16.3331 117.574 16.4002 118.118 16.4819 117.781Z" fill="black"/>
<path d="M11.4266 106.361C11.669 106.405 11.9501 106.439 11.9098 106.499C12.1758 106.439 12.2356 106.385 11.4266 106.361Z" fill="black"/>
<path d="M11.9101 106.499L11.7397 106.535L11.8986 106.52L11.9101 106.499Z" fill="black"/>
<path d="M19.4618 118.098C19.4891 118.848 19.2477 119.213 19.0294 119.857L18.6367 120.057C18.3158 120.695 18.6686 120.462 18.4388 120.969C17.9371 121.424 16.9186 122.394 16.5925 122.482C16.3542 122.477 16.7538 122.195 16.806 122.085C16.1352 122.555 16.2676 122.791 15.2415 123.078L15.2118 123.009C12.6823 124.227 9.16839 121.815 9.21455 118.525C9.18783 118.733 9.13772 118.681 9.08185 118.765C8.95128 117.073 9.84646 115.373 11.3562 114.677C12.8329 113.93 14.5641 114.236 15.6211 115.245C15.0405 114.467 13.8839 113.642 12.5141 113.719C11.1716 113.741 9.91539 114.613 9.49634 115.56C8.80886 116.003 8.72869 117.267 8.42929 117.499C8.02573 120.529 9.18752 121.838 11.1531 123.378C11.4616 123.591 11.2399 123.624 11.2812 123.786C10.6284 123.474 10.0308 123.002 9.53885 122.424C9.8 122.814 10.0815 123.194 10.4456 123.492C9.82946 123.279 9.00685 121.966 8.76726 121.913C9.82854 123.856 13.0725 125.32 14.7721 124.594C13.9856 124.623 12.9869 124.61 12.1039 124.276C11.7319 124.081 11.2281 123.677 11.3183 123.602C13.637 124.487 16.0317 124.272 18.0376 122.627C18.5484 122.221 19.1059 121.529 19.2671 121.52C19.0245 121.893 19.3087 121.699 19.1223 122.029C19.63 121.19 18.9009 121.687 19.6476 120.581L19.9233 120.969C19.8201 120.272 20.769 119.427 20.6725 118.326C20.8902 117.989 20.9151 118.688 20.6843 119.463C21.0047 118.604 20.769 118.465 20.851 117.756C20.9394 117.995 21.0569 118.248 21.1167 118.5C20.9078 117.669 21.3302 117.101 21.4353 116.619C21.3314 116.572 21.1131 116.986 21.0627 116.005C21.0703 115.579 21.179 115.782 21.2206 115.677C21.1392 115.629 20.9245 115.302 20.7942 114.676C20.8881 114.528 21.0469 115.057 21.1756 115.079C21.0927 114.581 20.9503 114.201 20.9442 113.819C20.5677 113.015 20.8109 113.927 20.5061 113.474C20.1052 112.196 20.8383 113.177 20.8881 112.597C21.4948 113.496 21.8406 114.89 22.0001 115.468C21.8786 114.764 21.6827 114.081 21.4432 113.422C21.6281 113.501 21.1459 111.974 21.6833 112.985C21.1097 110.829 19.2304 108.814 17.5011 107.869C17.7121 108.066 17.979 108.315 17.8837 108.354C17.0231 107.831 17.1743 107.789 17.051 107.568C16.3511 107.277 16.3043 107.592 15.8413 107.569C14.5204 106.852 14.2659 106.928 13.0504 106.48L13.1056 106.745C12.2308 106.447 12.0862 106.857 11.141 106.745C11.0836 106.7 11.444 106.579 11.741 106.535C10.895 106.649 10.9345 106.364 10.1067 106.566C10.3104 106.42 10.5267 106.323 10.7441 106.199C10.0545 106.242 9.09703 106.609 9.39249 106.274C8.26744 106.788 6.26907 107.509 5.14766 108.584L5.11243 108.343C4.59865 108.974 2.87174 110.227 2.73419 111.044L2.59663 111.077C2.32971 111.54 2.15633 112.064 1.94437 112.54C1.59486 113.15 1.4318 112.775 1.4816 112.871C0.793813 114.296 0.45159 115.494 0.156738 116.477C0.366869 116.799 0.1619 118.412 0.241155 119.704C-0.1038 126.083 4.61929 132.276 9.78208 133.705C10.5388 133.983 11.6639 133.973 12.621 134C11.492 133.67 11.3462 133.825 10.2458 133.433C9.45231 133.05 9.27862 132.614 8.71624 132.115L8.93883 132.517C7.83655 132.118 8.2978 132.024 7.4008 131.733L7.63856 131.416C7.28116 131.388 6.69206 130.801 6.53112 130.475L6.14001 130.49C5.67056 129.899 5.42004 129.471 5.43856 129.14L5.31224 129.37C5.16922 129.119 3.58412 127.147 4.40643 127.606C4.25369 127.464 4.05054 127.374 3.83039 126.965L3.99771 126.77C3.60265 126.249 3.26953 125.582 3.29504 125.359C3.50608 125.651 3.65245 125.705 3.7976 125.755C2.79826 123.22 2.74208 125.616 1.98567 123.175L2.14539 123.162C2.02302 122.972 1.94802 122.768 1.84963 122.566L1.91947 121.857C1.20041 121.007 1.71845 118.241 1.82261 116.724C1.89396 116.107 2.42294 115.451 2.82468 114.421L2.57993 114.378C3.04817 113.543 5.25272 111.025 6.27423 111.154C6.76889 110.518 6.17584 111.151 6.07898 110.992C7.16577 109.842 7.50738 110.179 8.24072 109.972C9.03114 109.493 7.56204 110.16 7.93676 109.789C9.30413 109.433 8.90542 108.978 10.6888 108.797C10.8771 108.906 10.2525 108.966 10.0958 109.108C11.2345 108.537 13.6999 108.668 15.302 109.424C17.1595 110.312 19.2477 112.937 19.3303 115.406L19.4241 115.432C19.3768 116.414 19.5711 117.549 19.2337 118.592L19.4618 118.098Z" fill="black"/>
<path d="M8.19481 121.431L8.13074 121.756C8.42923 122.17 8.66609 122.619 9.04657 122.942C8.77267 122.396 8.56952 122.17 8.19481 121.431Z" fill="black"/>
<path d="M8.89959 121.403C8.74169 121.224 8.64877 121.009 8.5437 120.795C8.64391 121.171 8.84918 121.494 9.03957 121.824L8.89959 121.403Z" fill="black"/>
<path d="M21.3751 118.63L21.3086 118.801C21.1865 119.689 20.9221 120.567 20.5176 121.381C20.9646 120.522 21.2527 119.582 21.3751 118.63Z" fill="black"/>
<path d="M11.5169 106.138C11.8233 106.024 12.2706 106.075 12.5967 106C12.1722 106.036 11.7498 106.058 11.3329 106.112L11.5169 106.138Z" fill="black"/>
<path d="M0.745747 111.995C0.816499 112.664 0.253821 112.924 0.870247 112.482C1.20123 111.72 0.741496 112.272 0.745747 111.995Z" fill="black"/>
<path d="M0.0206415 115.092C0.163057 114.646 0.188564 114.378 0.242919 114.12C-0.149711 114.633 0.061939 114.743 0.0206415 115.092Z" fill="black"/>
</g>
</svg>
