<svg width="375" height="350" viewBox="0 0 375 350" fill="none" xmlns="http://www.w3.org/2000/svg">
<g opacity="0.025436">
<path fill-rule="evenodd" clip-rule="evenodd" d="M51.6431 203.993C41.623 210.099 30.7047 209.728 20.1462 209.369C14.8184 209.187 9.31004 208.999 4.11798 209.693C-11.2392 211.749 -25.9087 221.224 -34.1659 234.418C-63.7591 281.705 0.74095 322.308 -12.3847 372.487C-15.4327 384.143 -21.717 394.467 -25.6803 405.393C-36.4157 434.985 -21.0041 452.363 10.0903 451.559C31.8117 450.996 56.3405 443.172 71.6795 465.571C83.3231 482.571 84.8404 503.585 93.9988 520.819C99.8456 531.82 110.751 541.824 121.934 539.378C128.001 538.049 132.96 533.294 137.013 528.816C161.018 502.286 167.263 468.117 183.142 436.228C196.622 409.16 217.359 401.23 246.54 411.98C294.427 429.622 330.769 409.568 332.377 408.656C376.791 383.245 369.64 299.796 334.153 273.192C315.413 259.144 291.137 265.646 268.633 260.189C214.142 246.975 223.995 185.006 202.517 148.09C190.534 127.494 170.133 116.946 145.071 118.39C116.686 120.026 95.8226 129.693 83.0556 147.112C78.3483 153.535 75.664 161.562 72.8247 170.059C68.3146 183.545 63.8274 196.57 51.6431 203.993ZM3.45442 204.738C19.2708 202.62 35.4577 207.999 49.0426 199.723C67.2722 188.615 66.35 161.448 79.0225 144.156C92.7129 125.472 114.838 115.124 144.783 113.398C171.822 111.841 193.86 123.267 206.839 145.575C228.98 183.63 218.698 242.933 269.811 255.329C291.6 260.614 316.947 254.044 337.152 269.192C357.408 284.374 370.113 318.205 368.051 351.46C365.127 398.644 335.325 412.497 334.851 413.003C333.245 413.914 294.909 435.129 244.812 416.672C175.602 391.175 186.602 481.463 140.72 532.172C136.138 537.236 130.448 542.634 123.003 544.262C108.321 547.475 95.8243 534.906 89.5833 523.167C80.1009 505.324 78.6594 484.614 67.5545 468.396C54.0755 448.718 31.9804 455.994 10.2183 456.558C-24.3425 457.452 -42.3394 436.657 -30.3808 403.689C-26.3526 392.582 -20.1139 382.274 -17.2221 371.222C-4.81076 323.772 -69.7454 281.845 -38.4046 231.765C-29.3993 217.373 -13.3766 206.989 3.45442 204.738Z" fill="#81391B"/>
<path fill-rule="evenodd" clip-rule="evenodd" d="M63.1285 221.274C50.0129 229.26 35.3045 224.513 22.1362 226.316C8.94347 228.135 -3.6666 236.31 -10.7717 247.654C-36.2449 288.317 18.9171 323.456 7.69178 366.817C5.05953 376.991 -0.2364 385.678 -3.66225 395.252C-12.8554 420.859 0.667021 435.579 27.0643 435.024C45.7884 434.635 66.95 427.992 80.2596 447.347C90.3324 461.98 91.7604 480.099 99.6851 494.858C104.728 504.249 114.092 512.8 123.646 510.732C128.834 509.609 133.098 505.558 136.586 501.741C157.319 479.042 162.845 449.757 176.644 422.338C195.834 384.126 227.651 401.068 231.53 401.271C256.856 410.497 283.432 408.949 305.292 398.006C343.272 376.074 337.398 304.366 306.834 281.232C290.772 269.103 269.946 274.559 250.528 269.759C203.552 258.216 211.817 204.919 193.212 173.218C182.868 155.584 165.315 146.547 143.784 147.776C119.378 149.168 101.419 157.44 90.4041 172.361C86.3417 177.86 84.0054 184.745 81.5319 192.033C77.6102 203.593 73.6827 214.849 63.1285 221.274ZM-4.1076 233.187C22.0197 211.581 42.8112 228.209 60.7136 217.308C76.3629 207.779 75.6938 184.459 86.6685 169.602C98.5418 153.515 117.671 144.613 143.519 143.14C166.877 141.807 185.948 151.656 197.217 170.869C216.379 203.52 207.835 254.488 251.64 265.25C270.43 269.895 292.2 264.364 309.632 277.529C342.342 302.283 349.025 378.117 307.614 402.029L307.597 402.002C301.622 406.143 268.744 419.77 229.942 405.635L229.943 405.636C170.515 384.05 179.855 461.254 140.014 504.873C136.033 509.228 131.09 513.871 124.628 515.27C111.898 518.025 101.031 507.181 95.5958 497.055C87.4385 481.864 85.9525 463.808 76.4338 449.979C64.849 433.134 45.8782 439.276 27.1619 439.665C-2.53969 440.292 -18.3196 422.337 -8.03285 393.685C-4.6257 384.163 0.728997 375.192 3.19702 365.654C13.775 324.787 -41.8055 288.444 -14.7062 245.189C-11.8817 240.678 -8.26153 236.622 -4.1076 233.187Z" fill="#81391B"/>
<path fill-rule="evenodd" clip-rule="evenodd" d="M74.614 238.555C63.5293 245.299 51.2167 241.376 40.1547 242.939C29.1276 244.521 18.5757 251.402 12.6211 260.891C-8.74932 294.958 37.1031 324.561 27.7685 361.147C25.5861 369.712 21.1785 377.07 18.356 385.109C10.8832 406.231 21.7326 418.81 44.04 418.485C59.7571 418.274 77.5604 412.819 88.8399 429.123C97.3958 441.473 98.6301 456.519 105.372 468.893C109.609 476.679 117.433 483.776 125.358 482.087C129.667 481.167 133.237 477.818 136.16 474.663C153.602 455.816 158.46 431.341 170.148 408.445C180.106 388.85 195.272 382.998 216.517 390.561L216.521 390.562C248.91 402.177 274.278 389.538 277.613 387.723L277.625 387.697C277.834 387.402 298.137 378.373 300.177 345.752C301.606 322.924 293.108 299.699 279.513 289.271C266.144 279.073 248.71 283.461 232.422 279.327C192.964 269.458 199.641 224.835 183.907 198.349C175.204 183.672 160.497 176.148 142.497 177.16C122.07 178.309 107.016 185.19 97.7513 197.609C94.333 202.186 92.3453 207.929 90.2402 214.012C86.8436 223.826 83.4991 233.144 74.614 238.555ZM39.55 238.695C51.0022 237.074 62.6527 240.817 72.3847 234.894C85.4242 226.964 85.0484 207.455 94.3162 195.047C104.375 181.561 120.502 174.104 142.255 172.881C161.932 171.775 178.033 180.043 187.593 196.163C203.835 223.499 196.909 266.026 233.467 275.171C249.218 279.168 267.478 274.699 282.117 285.866C309.654 306.986 315.115 370.728 280.368 391.059L280.363 391.05C277.179 393.346 268.099 396.508 261.368 397.934C250.758 400.179 234.116 401.424 215.075 394.597C165.494 376.947 173.051 441.109 139.305 477.575C135.925 481.224 131.731 485.112 126.252 486.279C115.473 488.576 106.239 479.454 101.607 470.945C94.6233 458.12 93.3814 443.2 85.3151 431.563C75.6181 417.544 59.7512 422.561 44.1013 422.772C18.9869 423.137 5.78984 407.78 14.3134 383.684C17.1295 375.667 21.58 368.078 23.6161 360.088C32.4099 325.613 -13.9299 295.15 8.99012 258.612C15.6892 247.941 27.4757 240.427 39.55 238.695Z" fill="#81391B"/>
<path fill-rule="evenodd" clip-rule="evenodd" d="M86.0986 255.836C77.0591 261.33 67.1083 258.239 58.1759 259.56C49.3153 260.906 40.8189 266.489 36.0158 274.128C18.7418 301.607 55.2871 325.663 47.8458 355.475C44.7379 367.938 33.1345 382.771 41.4091 394.304C44.9766 399.278 51.9425 401.993 61.0211 401.948C73.7549 401.91 88.1733 397.648 97.4171 410.898C104.383 420.849 105.559 433.039 111.055 442.928C114.237 448.655 120.341 454.843 127.072 453.441C130.503 452.728 133.378 450.079 135.738 447.582C162.383 419.345 157.736 364.636 201.504 379.852C227.931 389.04 248.022 378.539 250.562 377.088L250.592 377.024C250.76 376.785 267.12 369.336 268.754 342.943C269.893 324.551 263.083 305.786 252.192 297.312C241.546 289.03 227.443 292.309 214.316 288.897C182.407 280.601 187.458 244.739 174.604 223.482C167.541 211.763 155.681 205.75 141.209 206.546C124.758 207.449 112.606 212.941 105.096 222.863C102.323 226.513 100.682 231.117 98.9462 235.99C96.15 243.834 93.3742 251.417 86.0986 255.836ZM57.5941 255.675C66.8528 254.303 76.2563 257.22 84.0592 252.479C94.5748 246.073 94.3467 230.526 101.964 220.49C110.092 209.759 123.586 203.578 140.992 202.621C156.987 201.742 170.119 208.43 177.968 221.451C191.3 243.498 186.007 277.477 215.305 285.095C228.017 288.399 242.783 285.012 254.604 294.21C276.879 311.541 281.317 363.291 253.126 380.088L253.109 380.06C250.837 381.791 244.338 384.454 237.664 385.924C229.103 387.811 215.656 388.932 200.213 383.563C160.491 369.75 166.185 421.039 138.593 450.279C135.814 453.223 132.366 456.353 127.874 457.287C119.053 459.126 111.451 451.729 107.62 444.837C101.942 434.623 100.707 422.45 94.1963 413.148C86.3761 401.939 74.2681 405.839 61.0376 405.878C40.8208 405.975 29.8486 393.511 36.6588 373.689C37.6017 370.947 38.7624 368.276 39.8859 365.693C46.4088 350.691 48.0788 344.407 36.2383 318.931C29.3351 304.08 22.1983 288.725 32.6891 272.036C38.0659 263.486 47.5919 257.193 57.5941 255.675Z" fill="#81391B"/>
<path fill-rule="evenodd" clip-rule="evenodd" d="M97.5841 273.117C90.609 277.35 82.9489 275.089 76.2089 276.18C69.5158 277.264 63.078 281.549 59.4079 287.365C52.2639 298.693 56.9819 309.242 61.9797 320.41C71.1642 340.946 69.7918 346.687 64.696 358.883C63.8885 360.82 63.0512 362.822 62.3951 364.815C58.1779 377.619 64.6394 385.265 78.0096 385.412C87.7009 385.552 98.783 382.476 105.994 392.669C111.435 400.32 112.429 409.463 116.735 416.956C119.171 421.199 123.79 425.798 128.789 424.795C131.344 424.284 133.525 422.336 135.319 420.496C146.207 409.316 149.698 394.584 157.157 380.651C163.655 368.511 173.249 364.745 186.483 369.139C205.532 375.465 221.009 368.231 223.494 366.493L223.559 366.353C223.703 366.143 236.071 360.391 237.319 340.206C238.184 326.235 233.062 311.901 224.865 305.347C216.882 298.962 206.261 301.212 196.204 298.464C171.834 291.809 175.285 264.657 165.304 248.621C159.88 239.854 150.865 235.349 139.921 235.931C127.446 236.59 118.201 240.69 112.437 248.119C110.309 250.85 109.017 254.312 107.647 257.979C105.401 263.998 103.199 269.711 97.5841 273.117ZM75.6379 272.655C82.7216 271.509 89.8446 273.634 95.7318 270.063C103.682 265.228 103.685 253.536 109.619 245.927C115.955 237.758 126.369 233.071 139.732 232.363C152.038 231.709 162.199 236.814 168.34 246.738C178.724 263.424 175.103 289 197.145 295.019C206.828 297.665 218.076 295.344 227.096 302.558C244.34 316.344 247.295 355.95 225.894 369.109C224.011 370.652 218.861 372.777 213.961 373.93C207.447 375.46 197.195 376.46 185.355 372.528C155.478 362.608 159.447 400.841 137.876 422.99C135.695 425.221 132.999 427.593 129.493 428.297C122.633 429.673 116.665 424.006 113.637 418.735C109.168 410.954 108.087 401.77 103.08 394.737C97.137 386.336 87.8885 389.124 77.9646 388.985C61.7778 388.805 54.1369 378.469 59.0027 363.698C64.102 348.222 69.9148 346.898 58.719 321.87C53.5582 310.334 48.2218 298.406 56.3863 285.458C60.6396 278.723 67.8232 273.919 75.6379 272.655Z" fill="#81391B"/>
<path fill-rule="evenodd" clip-rule="evenodd" d="M109.067 290.399C104.157 293.367 98.8382 291.952 94.249 292.798C89.7138 293.637 85.327 296.627 82.7993 300.604C73.7334 314.896 91.6332 327.936 88.0042 344.115C87.1481 347.943 85.481 351.142 84.42 354.65C81.7923 363.322 86.1071 368.483 95.0193 368.877C101.435 369.166 109.402 367.359 114.564 374.433C118.405 379.695 119.356 385.977 122.406 390.971C124.097 393.74 127.236 396.758 130.515 396.148C132.197 395.834 133.682 394.584 134.915 393.399C149.795 379.02 148.172 351.392 171.446 358.422C184.661 362.414 194.934 357.069 196.436 355.873L196.523 355.687C196.656 355.489 205.016 351.536 205.884 337.466C206.473 327.914 203.037 318.007 197.527 313.372C192.272 308.95 184.911 310.068 178.078 308.028C166.835 304.674 163.921 295.291 161.105 286.219C158.484 277.775 154.811 264.513 138.629 265.315C130.127 265.734 123.783 268.452 119.77 273.386C118.286 275.197 117.341 277.523 116.34 279.985C114.632 284.188 112.997 288.024 109.067 290.399ZM93.6664 289.638C98.5586 288.735 103.435 290.047 107.404 287.647C112.776 284.413 113.036 276.532 117.279 271.354C121.828 265.761 129.153 262.563 138.471 262.105C147.066 261.679 154.251 265.196 158.703 272.009C166.129 283.373 164.189 300.53 178.997 304.946C185.659 306.936 193.38 305.681 199.597 310.912C211.379 320.824 213.635 348.407 198.663 358.131L198.662 358.129C194.117 362.035 181.964 364.956 170.516 361.5C150.491 355.452 152.573 380.805 137.147 395.712C135.567 397.229 133.621 398.84 131.102 399.308C126.221 400.216 121.992 396.461 119.662 392.646C118.163 390.189 117.147 387.528 116.164 384.954C111.827 373.593 109.53 371.927 99.0101 372.104C92.9349 372.207 86.385 371.849 82.5736 366.463C78.7529 361.07 80.8093 354.785 82.9102 349.331C85.9583 341.435 86.7702 338.247 81.1918 324.812C77.7782 316.587 74.2473 308.083 80.0866 298.881C83.1117 294.119 88.1807 290.65 93.6664 289.638Z" fill="#81391B"/>
<path fill-rule="evenodd" clip-rule="evenodd" d="M120.548 307.682C117.728 309.372 114.76 308.813 112.33 309.406C109.898 310.001 107.602 311.662 106.19 313.847C103.42 318.144 104.777 322.187 106.35 326.867C109.036 334.866 108.657 337.065 107.142 342.006C106.367 344.542 105.464 347.412 107.096 349.77C108.713 352.109 111.734 352.37 114.255 352.545C121.169 353.028 122.925 354.733 125.958 361.121C126.999 363.313 129.136 367.962 132.269 367.496C133.101 367.372 133.862 366.83 134.559 366.262C143.421 358.978 143.541 344.866 156.349 347.693C163.626 349.298 168.75 345.919 169.367 345.282L169.476 345.047L169.765 344.829C176.444 339.826 175.54 326.51 170.157 321.364C167.468 318.796 163.772 318.989 159.908 317.574C146.912 312.819 152.398 294.098 137.33 294.701C132.807 294.879 129.351 296.225 127.068 298.692C126.235 299.59 125.639 300.78 125.008 302.041C123.874 304.305 122.772 306.351 120.548 307.682ZM111.653 306.63C114.302 305.983 117.008 306.471 119.081 305.232C121.931 303.516 122.428 299.494 124.971 296.75C127.747 293.748 131.986 292.051 137.217 291.846C142.096 291.651 146.294 293.567 149.037 297.244C153.541 303.273 153.238 312.092 160.89 314.892C164.532 316.221 168.758 316.073 172.13 319.299C178.713 325.591 179.616 340.858 171.648 346.988C170.109 348.883 163.673 352.234 155.733 350.483C151.749 349.604 148.932 350.798 146.6 354.354C144.032 358.273 138.532 369.458 132.686 370.323C130.244 370.686 127.639 369.295 125.719 366.601C124.748 365.238 124.051 363.768 123.376 362.346C120.633 356.56 119.568 355.78 114.055 355.396C110.373 355.139 106.924 354.547 104.744 351.395C102.473 348.111 103.392 344.496 104.411 341.167C105.761 336.764 106.113 335.138 103.64 327.777C101.986 322.847 100.274 317.752 103.788 312.299C105.536 309.591 108.442 307.414 111.653 306.63Z" fill="#81391B"/>
<path d="M112.33 309.406L112.212 308.92L112.212 308.92L112.33 309.406ZM106.19 313.847L105.77 313.576L105.769 313.577L106.19 313.847ZM106.35 326.867L106.824 326.708L106.824 326.708L106.35 326.867ZM107.142 342.006L106.664 341.859L106.664 341.859L107.142 342.006ZM107.096 349.77L107.507 349.486L107.507 349.486L107.096 349.77ZM114.255 352.545L114.29 352.046L114.289 352.046L114.255 352.545ZM125.958 361.121L126.41 360.906L126.41 360.906L125.958 361.121ZM132.269 367.496L132.342 367.991L132.342 367.991L132.269 367.496ZM134.559 366.262L134.875 366.649L134.877 366.648L134.559 366.262ZM156.349 347.693L156.241 348.181L156.241 348.181L156.349 347.693ZM169.367 345.282L169.726 345.629L169.785 345.568L169.82 345.492L169.367 345.282ZM169.476 345.047L169.176 344.646L169.075 344.722L169.022 344.836L169.476 345.047ZM169.765 344.829L169.466 344.429L169.466 344.429L169.765 344.829ZM170.157 321.364L170.502 321.003L170.502 321.002L170.157 321.364ZM159.908 317.574L160.08 317.104L160.08 317.104L159.908 317.574ZM137.33 294.701L137.35 295.201L137.35 295.201L137.33 294.701ZM127.068 298.692L127.434 299.032L127.435 299.032L127.068 298.692ZM125.008 302.041L124.561 301.817L124.561 301.817L125.008 302.041ZM119.081 305.232L119.338 305.661L119.339 305.66L119.081 305.232ZM124.971 296.75L125.338 297.09L125.338 297.089L124.971 296.75ZM137.217 291.846L137.237 292.346L137.237 292.346L137.217 291.846ZM149.037 297.244L148.637 297.543L148.637 297.544L149.037 297.244ZM160.89 314.892L160.719 315.362L160.719 315.362L160.89 314.892ZM172.13 319.299L171.784 319.66L171.784 319.66L172.13 319.299ZM171.648 346.988L171.343 346.592L171.297 346.627L171.26 346.673L171.648 346.988ZM155.733 350.483L155.625 350.971L155.626 350.971L155.733 350.483ZM146.6 354.354L146.182 354.079L146.182 354.08L146.6 354.354ZM132.686 370.323L132.613 369.828L132.613 369.828L132.686 370.323ZM125.719 366.601L125.312 366.891L125.312 366.891L125.719 366.601ZM123.376 362.346L122.925 362.561L122.925 362.561L123.376 362.346ZM114.055 355.396L114.02 355.895L114.02 355.895L114.055 355.396ZM104.744 351.395L104.333 351.68L104.333 351.68L104.744 351.395ZM104.411 341.167L103.933 341.02L103.933 341.02L104.411 341.167ZM103.64 327.777L103.166 327.936L103.166 327.936L103.64 327.777ZM103.788 312.299L103.368 312.027L103.368 312.028L103.788 312.299ZM120.291 307.253C118.972 308.044 117.609 308.316 116.241 308.458C115.543 308.531 114.888 308.566 114.2 308.626C113.528 308.684 112.857 308.763 112.212 308.92L112.449 309.892C113.019 309.753 113.629 309.679 114.286 309.622C114.925 309.567 115.644 309.526 116.344 309.453C117.773 309.304 119.304 309.011 120.805 308.111L120.291 307.253ZM112.212 308.92C109.65 309.546 107.248 311.288 105.77 313.576L106.61 314.119C107.955 312.036 110.146 310.455 112.449 309.892L112.212 308.92ZM105.769 313.577C102.852 318.103 104.316 322.383 105.876 327.026L106.824 326.708C105.239 321.99 103.988 318.185 106.61 314.118L105.769 313.577ZM105.876 327.026C107.215 331.014 107.772 333.506 107.821 335.595C107.871 337.675 107.42 339.392 106.664 341.859L107.62 342.152C108.379 339.678 108.875 337.826 108.821 335.571C108.768 333.327 108.171 330.719 106.824 326.708L105.876 327.026ZM106.664 341.859C106.28 343.115 105.842 344.519 105.718 345.91C105.593 347.315 105.782 348.75 106.685 350.055L107.507 349.486C106.777 348.432 106.602 347.253 106.714 345.999C106.827 344.731 107.229 343.432 107.62 342.152L106.664 341.859ZM106.685 350.055C107.578 351.346 108.851 352.048 110.193 352.448C111.526 352.846 112.965 352.957 114.22 353.044L114.289 352.046C113.024 351.958 111.691 351.851 110.479 351.49C109.277 351.131 108.231 350.533 107.507 349.486L106.685 350.055ZM114.22 353.044C117.652 353.283 119.696 353.823 121.258 355.016C122.834 356.22 123.988 358.139 125.506 361.335L126.41 360.906C124.894 357.715 123.654 355.588 121.865 354.221C120.062 352.844 117.771 352.289 114.29 352.046L114.22 353.044ZM125.506 361.335C126.022 362.42 126.838 364.181 127.932 365.609C129.009 367.015 130.487 368.266 132.342 367.991L132.195 367.002C130.918 367.191 129.761 366.351 128.726 365.001C127.708 363.673 126.935 362.013 126.41 360.906L125.506 361.335ZM132.342 367.991C133.324 367.845 134.18 367.216 134.875 366.649L134.243 365.874C133.544 366.444 132.878 366.9 132.195 367.002L132.342 367.991ZM134.877 366.648C137.152 364.778 138.854 362.479 140.324 360.157C141.058 358.997 141.739 357.823 142.402 356.693C143.067 355.56 143.714 354.472 144.389 353.464C145.743 351.446 147.179 349.8 149.022 348.819C150.848 347.846 153.132 347.495 156.241 348.181L156.456 347.205C153.162 346.478 150.627 346.831 148.552 347.936C146.493 349.033 144.944 350.841 143.559 352.907C142.865 353.943 142.204 355.055 141.539 356.187C140.873 357.323 140.202 358.48 139.479 359.623C138.033 361.907 136.398 364.104 134.242 365.876L134.877 366.648ZM156.241 348.181C159.979 349.005 163.17 348.55 165.507 347.804C166.675 347.432 167.632 346.986 168.34 346.589C169.035 346.2 169.521 345.841 169.726 345.629L169.007 344.934C168.904 345.041 168.519 345.343 167.852 345.717C167.198 346.083 166.303 346.501 165.203 346.852C163.005 347.553 159.995 347.985 156.456 347.205L156.241 348.181ZM169.82 345.492L169.929 345.257L169.022 344.836L168.913 345.071L169.82 345.492ZM169.775 345.447L170.065 345.229L169.466 344.429L169.176 344.646L169.775 345.447ZM170.065 345.229C173.584 342.593 175.049 337.823 174.984 333.143C174.919 328.463 173.322 323.698 170.502 321.003L169.811 321.725C172.374 324.175 173.921 328.642 173.984 333.157C174.047 337.672 172.626 342.062 169.466 344.429L170.065 345.229ZM170.502 321.002C169.065 319.63 167.369 319.009 165.598 318.552C163.795 318.087 161.984 317.801 160.08 317.104L159.737 318.043C161.697 318.761 163.665 319.086 165.348 319.521C167.063 319.963 168.56 320.53 169.811 321.726L170.502 321.002ZM160.08 317.104C153.831 314.818 152.024 309.206 149.859 303.938C148.791 301.341 147.626 298.817 145.735 296.992C143.816 295.14 141.195 294.046 137.31 294.202L137.35 295.201C141 295.055 143.344 296.074 145.04 297.712C146.764 299.376 147.865 301.716 148.934 304.318C151.042 309.449 152.99 315.575 159.737 318.043L160.08 317.104ZM137.311 294.202C132.702 294.383 129.102 295.759 126.701 298.352L127.435 299.032C129.6 296.692 132.913 295.375 137.35 295.201L137.311 294.202ZM126.701 298.352C125.811 299.312 125.184 300.572 124.561 301.817L125.455 302.264C126.095 300.988 126.66 299.867 127.434 299.032L126.701 298.352ZM124.561 301.817C123.424 304.087 122.377 306.005 120.291 307.253L120.805 308.111C123.168 306.697 124.324 304.522 125.455 302.264L124.561 301.817ZM111.772 307.115C113.048 306.804 114.321 306.768 115.628 306.651C116.903 306.536 118.197 306.343 119.338 305.661L118.825 304.803C117.892 305.36 116.796 305.542 115.538 305.655C114.311 305.765 112.907 305.809 111.534 306.144L111.772 307.115ZM119.339 305.66C120.899 304.721 121.79 303.165 122.587 301.604C123.402 300.008 124.126 298.398 125.338 297.09L124.604 296.41C123.274 297.846 122.477 299.62 121.696 301.149C120.897 302.715 120.114 304.027 118.823 304.803L119.339 305.66ZM125.338 297.089C128.001 294.21 132.099 292.547 137.237 292.346L137.197 291.347C131.873 291.555 127.494 293.286 124.604 296.41L125.338 297.089ZM137.237 292.346C141.964 292.157 145.999 294.008 148.637 297.543L149.438 296.945C146.589 293.126 142.228 291.146 137.197 291.347L137.237 292.346ZM148.637 297.544C149.727 299.004 150.534 300.642 151.253 302.346C151.612 303.198 151.946 304.059 152.284 304.921C152.62 305.781 152.96 306.642 153.325 307.479C154.787 310.829 156.699 313.89 160.719 315.362L161.062 314.422C157.43 313.093 155.667 310.345 154.241 307.079C153.885 306.262 153.552 305.418 153.215 304.557C152.879 303.699 152.539 302.824 152.174 301.957C151.443 300.224 150.599 298.5 149.438 296.945L148.637 297.544ZM160.719 315.362C161.659 315.705 162.631 315.95 163.595 316.175C164.569 316.401 165.525 316.604 166.478 316.866C168.372 317.388 170.182 318.128 171.784 319.66L172.476 318.937C170.705 317.244 168.717 316.445 166.744 315.902C165.764 315.633 164.77 315.421 163.822 315.201C162.865 314.978 161.942 314.744 161.062 314.422L160.719 315.362ZM171.784 319.66C174.951 322.686 176.794 327.93 176.845 333.209C176.897 338.486 175.159 343.656 171.343 346.592L171.953 347.384C176.105 344.19 177.899 338.661 177.845 333.199C177.792 327.739 175.892 322.203 172.475 318.937L171.784 319.66ZM171.26 346.673C170.577 347.513 168.689 348.784 165.944 349.625C163.222 350.458 159.716 350.849 155.841 349.995L155.626 350.971C159.69 351.868 163.372 351.458 166.237 350.581C169.08 349.71 171.179 348.358 172.036 347.303L171.26 346.673ZM155.841 349.995C153.777 349.539 151.966 349.611 150.352 350.295C148.74 350.978 147.384 352.247 146.182 354.079L147.018 354.628C148.148 352.905 149.366 351.799 150.742 351.216C152.115 350.634 153.705 350.547 155.625 350.971L155.841 349.995ZM146.182 354.08C145.533 355.07 144.696 356.524 143.736 358.123C142.77 359.733 141.667 361.512 140.466 363.193C139.263 364.875 137.971 366.444 136.632 367.641C135.288 368.842 133.936 369.632 132.613 369.828L132.76 370.817C134.359 370.58 135.887 369.648 137.299 368.386C138.715 367.12 140.056 365.486 141.279 363.774C142.504 362.061 143.624 360.254 144.594 358.638C145.57 357.011 146.384 355.596 147.018 354.628L146.182 354.08ZM132.613 369.828C130.42 370.154 127.98 368.912 126.126 366.311L125.312 366.891C127.298 369.677 130.068 371.217 132.76 370.817L132.613 369.828ZM126.126 366.311C125.184 364.989 124.505 363.56 123.828 362.132L122.925 362.561C123.596 363.977 124.311 365.486 125.312 366.891L126.126 366.311ZM123.828 362.132C122.464 359.255 121.466 357.496 120.053 356.444C118.624 355.381 116.84 355.089 114.09 354.897L114.02 355.895C116.783 356.087 118.288 356.377 119.456 357.246C120.639 358.127 121.545 359.651 122.925 362.561L123.828 362.132ZM114.09 354.897C110.41 354.64 107.19 354.052 105.156 351.111L104.333 351.68C106.658 355.042 110.335 355.637 114.02 355.895L114.09 354.897ZM105.156 351.111C103.037 348.047 103.864 344.662 104.889 341.313L103.933 341.02C102.92 344.329 101.91 348.175 104.333 351.68L105.156 351.111ZM104.889 341.313C105.563 339.115 106.014 337.536 105.959 335.567C105.904 333.611 105.353 331.305 104.114 327.618L103.166 327.936C104.4 331.61 104.909 333.797 104.959 335.595C105.009 337.381 104.609 338.816 103.933 341.02L104.889 341.313ZM104.114 327.618C102.452 322.664 100.839 317.798 104.208 312.57L103.368 312.028C99.708 317.707 101.52 323.031 103.166 327.936L104.114 327.618ZM104.208 312.57C105.891 309.963 108.692 307.868 111.772 307.115L111.534 306.144C108.191 306.961 105.181 309.219 103.368 312.027L104.208 312.57Z" fill="#6E2E14"/>
</g>
</svg>
